<svg xmlns="http://www.w3.org/2000/svg" width="32" height="32" viewBox="0 0 32 32" fill="none"><rect width="32" height="32" rx="16" fill="#FFC54D"></rect><path d="M25.6875 23.0629H24.375V13.8754C24.375 13.5273 24.2367 13.1934 23.9906 12.9473C23.7444 12.7011 23.4106 12.5629 23.0625 12.5629H17.8125V8.62537C17.8127 8.38769 17.7483 8.15443 17.6262 7.95049C17.5042 7.74655 17.329 7.57958 17.1195 7.4674C16.9099 7.35522 16.6739 7.30205 16.4365 7.31355C16.1991 7.32505 15.9693 7.4008 15.7716 7.53271L9.20906 11.9066C9.02904 12.0267 8.8815 12.1895 8.7796 12.3804C8.6777 12.5713 8.62459 12.7845 8.625 13.0009V23.0629H7.3125C7.13845 23.0629 6.97153 23.132 6.84846 23.2551C6.72539 23.3781 6.65625 23.5451 6.65625 23.7191C6.65625 23.8932 6.72539 24.0601 6.84846 24.1832C6.97153 24.3062 7.13845 24.3754 7.3125 24.3754H25.6875C25.8615 24.3754 26.0285 24.3062 26.1515 24.1832C26.2746 24.0601 26.3438 23.8932 26.3438 23.7191C26.3438 23.5451 26.2746 23.3781 26.1515 23.2551C26.0285 23.132 25.8615 23.0629 25.6875 23.0629ZM23.0625 13.8754V23.0629H17.8125V13.8754H23.0625ZM9.9375 13.0009L16.5 8.62537V23.0629H9.9375V13.0009ZM15.1875 15.1879V16.5004C15.1875 16.6744 15.1184 16.8413 14.9953 16.9644C14.8722 17.0875 14.7053 17.1566 14.5312 17.1566C14.3572 17.1566 14.1903 17.0875 14.0672 16.9644C13.9441 16.8413 13.875 16.6744 13.875 16.5004V15.1879C13.875 15.0138 13.9441 14.8469 14.0672 14.7238C14.1903 14.6008 14.3572 14.5316 14.5312 14.5316C14.7053 14.5316 14.8722 14.6008 14.9953 14.7238C15.1184 14.8469 15.1875 15.0138 15.1875 15.1879ZM12.5625 15.1879V16.5004C12.5625 16.6744 12.4934 16.8413 12.3703 16.9644C12.2472 17.0875 12.0803 17.1566 11.9062 17.1566C11.7322 17.1566 11.5653 17.0875 11.4422 16.9644C11.3191 16.8413 11.25 16.6744 11.25 16.5004V15.1879C11.25 15.0138 11.3191 14.8469 11.4422 14.7238C11.5653 14.6008 11.7322 14.5316 11.9062 14.5316C12.0803 14.5316 12.2472 14.6008 12.3703 14.7238C12.4934 14.8469 12.5625 15.0138 12.5625 15.1879ZM12.5625 19.7816V21.0941C12.5625 21.2682 12.4934 21.4351 12.3703 21.5582C12.2472 21.6812 12.0803 21.7504 11.9062 21.7504C11.7322 21.7504 11.5653 21.6812 11.4422 21.5582C11.3191 21.4351 11.25 21.2682 11.25 21.0941V19.7816C11.25 19.6076 11.3191 19.4406 11.4422 19.3176C11.5653 19.1945 11.7322 19.1254 11.9062 19.1254C12.0803 19.1254 12.2472 19.1945 12.3703 19.3176C12.4934 19.4406 12.5625 19.6076 12.5625 19.7816ZM15.1875 19.7816V21.0941C15.1875 21.2682 15.1184 21.4351 14.9953 21.5582C14.8722 21.6812 14.7053 21.7504 14.5312 21.7504C14.3572 21.7504 14.1903 21.6812 14.0672 21.5582C13.9441 21.4351 13.875 21.2682 13.875 21.0941V19.7816C13.875 19.6076 13.9441 19.4406 14.0672 19.3176C14.1903 19.1945 14.3572 19.1254 14.5312 19.1254C14.7053 19.1254 14.8722 19.1945 14.9953 19.3176C15.1184 19.4406 15.1875 19.6076 15.1875 19.7816Z" fill="#673E49"></path></svg>