<svg xmlns="http://www.w3.org/2000/svg" width="71" height="55" viewBox="0 0 71 55" fill="none"><path d="M55 52.5L54.3753 51.7191L55 52.5ZM50.5 33L49.7228 32.3708L50.5 33ZM64.8137 0.418762C64.4927 -0.0306507 63.8682 -0.134742 63.4188 0.186267L56.0952 5.41741C55.6457 5.73842 55.5417 6.36297 55.8627 6.81238C56.1837 7.26179 56.8082 7.36589 57.2576 7.04488L63.7675 2.39497L68.4174 8.90484C68.7384 9.35425 69.363 9.45834 69.8124 9.13733C70.2618 8.81633 70.3659 8.19178 70.0449 7.74236L64.8137 0.418762ZM1.53281 44.3462C3.72433 42.9664 7.68754 40.8718 12.386 39.1248C17.0907 37.3755 22.4652 36 27.5 36V34C22.1348 34 16.5093 35.4579 11.689 37.2502C6.86246 39.0448 2.77567 41.2003 0.467187 42.6538L1.53281 44.3462ZM27.5 36C33.85 36 43.4059 38.0767 49.9335 41.2524C53.2341 42.8582 55.539 44.641 56.4134 46.3912C56.8275 47.2201 56.9129 48.0231 56.6502 48.8419C56.3782 49.6897 55.6982 50.6609 54.3753 51.7191L55.6247 53.2809C57.1325 52.0746 58.1223 50.8005 58.5546 49.4528C58.9962 48.0763 58.8202 46.7336 58.2025 45.4973C57.0134 43.1171 54.1732 41.091 50.8085 39.454C44.0054 36.1442 34.15 34 27.5 34V36ZM51.2772 33.6292C59.9385 22.9301 63.9759 7.2273 64.9864 1.1644L63.0136 0.835601C62.0241 6.7727 58.0615 22.0699 49.7228 32.3708L51.2772 33.6292ZM54.3753 51.7191C53.384 52.5122 51.8715 52.8727 50.3025 52.6514C48.7468 52.432 47.2507 51.655 46.2839 50.3299C44.4139 47.767 44.1418 42.4436 51.2772 33.6292L49.7228 32.3708C42.461 41.3413 41.9388 47.7678 44.6682 51.5087C46.001 53.3355 48.017 54.3489 50.0232 54.6318C52.0163 54.9129 54.116 54.4878 55.6247 53.2809L54.3753 51.7191Z" fill="#01D02E"></path></svg>