<svg xmlns="http://www.w3.org/2000/svg" width="194" height="194" viewBox="0 0 194 194" fill="none"><path fill-rule="evenodd" clip-rule="evenodd" d="M0 23.2815V46.5464L0.43312 46.6554C0.671494 46.7152 11.2255 46.7379 23.8867 46.7058L46.9072 46.6473L46.9658 31.2658C46.9978 22.8059 46.9671 12.3262 46.8972 7.97758L46.7701 0.0707173L23.385 0.0437064L0 0.0165065V23.2815ZM67.3647 0.138996C67.1731 0.336517 67.1913 6.25653 67.3843 6.56135C67.5029 6.74874 68.2379 6.79207 70.565 6.74893L73.5914 6.69284L73.5911 13.305L73.5909 19.9172H70.4076H67.2242V16.6346V13.3519H63.76H60.2958V9.97549V6.59905H57.0146H53.7335L53.7845 10.0224L53.8356 13.4457L56.9721 13.4971L60.1086 13.5485V20.1093V26.6701H56.9211H53.7337L53.7846 30.1872L53.8356 33.7043L56.9496 33.6411L60.0638 33.5779L60.1387 36.6855C60.1822 38.4889 60.2957 39.8755 60.4089 39.989C60.534 40.1143 61.8117 40.1663 63.9612 40.1334L67.3179 40.082L67.3671 33.4652L67.4164 26.8485L73.6401 26.8578C77.0631 26.8629 79.9693 26.865 80.098 26.8623C80.2764 26.8588 80.332 26.0501 80.332 23.4578V20.0579L80.9172 20.1751C81.2391 20.2397 82.7559 20.2924 84.2878 20.2924H87.0732V23.575V26.8577L89.6479 26.8882C91.0641 26.9051 92.5376 26.9263 92.9226 26.9351L93.6226 26.9515L93.7016 30.1606L93.7808 33.3699L87.1031 33.3494L80.4257 33.3292V39.9413V46.5535L77.4296 46.5565C75.7818 46.558 74.3086 46.6383 74.156 46.7349C73.9176 46.8859 73.8875 47.8293 73.941 53.4381C73.9852 58.0865 74.0652 60.0056 74.2184 60.1047C74.3367 60.1812 77.3693 60.2234 80.9576 60.1985L87.4816 60.1531L87.4569 56.9173L87.4322 53.6816H90.5934H93.7546L93.8776 58.0428C93.9454 60.4414 94.0008 63.3537 94.0012 64.5143L94.0016 66.6246L84.2176 66.6274C78.8364 66.6291 74.3214 66.7015 74.1843 66.7885C73.9911 66.9114 73.9397 67.6789 73.9562 70.2056C73.968 71.9982 74.038 73.5211 74.1118 73.5901C74.2373 73.7072 79.3162 74.1292 80.9874 74.1613C81.5065 74.1714 82.2827 73.918 83.5154 73.3362C85.163 72.5585 87.958 71.4532 91.9942 69.983C92.8985 69.6536 93.6981 69.2908 93.7713 69.1768C93.8443 69.0627 93.9471 68.505 93.9995 67.9376L94.0952 66.9059L100.743 66.8958L107.39 66.8857L107.44 60.2836L107.489 53.6816H110.67H113.851V46.9287V40.1758H117.03H120.209L120.26 43.5054L120.311 46.8349L123.728 46.8191L127.146 46.8034V53.1346C127.146 56.6168 127.202 59.6119 127.27 59.7903C127.386 60.0927 127.163 60.1082 123.996 60.0173C121.597 59.9484 120.553 59.9816 120.444 60.1302C120.36 60.2459 120.325 61.7985 120.367 63.5805L120.442 66.8202L123.934 66.7694L127.426 66.7183L127.36 63.4826C127.307 60.8595 127.342 60.2446 127.548 60.2348C127.687 60.2283 129.212 60.2333 130.937 60.2459L134.074 60.2692L134.074 56.9286L134.074 53.5878L137.163 53.6508L140.253 53.7138V40.192V26.6701H136.976H133.699V29.933V33.1958L127.099 33.274C123.468 33.3168 120.456 33.334 120.404 33.3119C120.353 33.29 120.335 31.8075 120.365 30.0178L120.42 26.7639L126.826 26.813C130.752 26.8432 133.34 26.7916 133.512 26.6796C133.737 26.5331 133.812 25.858 133.887 23.2693L133.98 20.0414L137.137 20.0262L140.294 20.011L140.32 13.3311L140.347 6.65101L137.164 6.5501C135.413 6.49457 133.917 6.48782 133.84 6.53509C133.763 6.58255 133.699 9.5932 133.699 13.2255V19.83L126.959 19.8266L120.218 19.8234L120.218 16.6815L120.217 13.5395H123.869H127.52V6.90049C127.52 1.758 127.467 0.242916 127.286 0.179514C127.157 0.134307 122.603 0.075595 117.166 0.0487711L107.28 0L107.335 3.32748L107.39 6.65495L104.207 6.53377C102.456 6.46718 99.4035 6.41241 97.4235 6.41204L93.8233 6.41147L93.772 3.32129L93.7207 0.231099L90.5436 0.179326L87.3662 0.127554L87.4241 3.26951L87.4822 6.41147H80.6301H73.7781V3.31641V0.221344H71.7459C70.628 0.221344 69.2166 0.170322 68.6094 0.107858C68.0021 0.0453937 67.442 0.0594623 67.3647 0.138996ZM147.509 18.3697C147.484 28.4545 147.463 38.9425 147.463 41.6765L147.464 46.6473H170.683H193.902V23.4812V0.315134L191.748 0.19921C190.564 0.135246 180.136 0.0720314 168.576 0.0585256L147.556 0.0337644L147.509 18.3697ZM7.08364 6.78663C7.06603 6.83822 7.04488 14.3339 7.03682 23.4435C7.02203 39.9188 7.02409 40.0062 7.39654 39.9063C7.60252 39.8509 15.0517 39.8046 23.9504 39.8033L40.1297 39.8007L40.0078 23.3405L39.8861 6.88042L36.8426 6.83447C30.2897 6.73524 7.11378 6.6981 7.08364 6.78663ZM87.4091 9.97118L87.3541 13.3523L90.6033 13.3521L93.8525 13.3519L93.7844 10.0224L93.7162 6.69284L90.5902 6.64145L87.4642 6.59005L87.4091 9.97118ZM154.11 23.2289V39.9098L170.682 39.911L187.254 39.9121V23.3494V6.78663H171.551C162.914 6.78663 155.457 6.73299 154.979 6.66733L154.11 6.54803V23.2289ZM114.038 10.0693V13.3519L117.081 13.3521H120.124V10.0697V6.7872L117.081 6.78701L114.038 6.78663V10.0693ZM13.8366 13.6802C13.7679 14.1553 13.904 33.3475 13.9767 33.4655C14.0259 33.5452 18.4326 33.6105 23.7695 33.6105C31.6945 33.6105 33.5112 33.564 33.6827 33.3569C33.9205 33.0699 33.8722 14.1486 33.6325 13.7603C33.5309 13.5956 31.0057 13.5395 23.6766 13.5395C18.2756 13.5395 13.8476 13.6029 13.8366 13.6802ZM100.556 16.7552L100.556 20.011L103.88 20.005L107.203 19.9988V16.8642V13.7293L104.175 13.7282C102.51 13.7276 101.015 13.6759 100.852 13.6132C100.589 13.5121 100.555 13.8633 100.556 16.7552ZM160.384 23.4126C160.308 28.7955 160.302 33.2922 160.372 33.4051C160.461 33.5498 163.432 33.6105 170.414 33.6105H180.329L180.281 23.6283L180.232 13.6459L170.377 13.6357L160.522 13.6256L160.384 23.4126ZM107.254 23.4343L107.203 26.7639L103.758 26.7768L100.313 26.7896L100.294 30.1532L100.275 33.5167H97.1849H94.0952V36.6651C94.0952 39.2571 94.0456 39.8455 93.8143 39.9961C93.6582 40.0978 92.2032 40.1704 90.5374 40.1595L87.5413 40.14L87.4902 43.3936L87.4389 46.6473L89.9245 46.5967C91.2915 46.5689 92.7359 46.5267 93.1342 46.5029L93.8585 46.4597L93.8832 43.2709L93.908 40.082L97.1381 40.0306L100.368 39.9794V46.6428V53.3064H102.681C103.954 53.3064 105.513 53.3606 106.146 53.4268L107.297 53.5474V46.7677V39.9882H110.503H113.709L113.639 30.0469L113.57 20.1054L110.437 20.1052L107.305 20.1048L107.254 23.4343ZM53.7039 43.3178C53.7464 45.1489 53.8356 46.6895 53.9021 46.7411C53.9685 46.7927 55.4343 46.81 57.1593 46.7792L60.2958 46.7237L60.3286 44.2938C60.3466 42.9574 60.3762 41.6286 60.3941 41.3409C60.4121 41.0531 60.358 40.6311 60.2737 40.403C60.1239 39.9969 60.0528 39.9882 56.8738 39.9882H53.6268L53.7039 43.3178ZM67.4298 40.2475C67.2821 40.4257 67.2312 41.4966 67.2664 43.6708L67.3179 46.8349L70.5012 46.7685C72.252 46.7321 73.7476 46.6638 73.825 46.6167C73.9023 46.5699 73.9654 45.0593 73.9654 43.2598V39.9882H70.8049C68.3438 39.9882 67.5971 40.0456 67.4298 40.2475ZM127.521 43.5054L127.522 46.6473L130.517 46.6561L133.512 46.665V43.5142V40.3634H130.516H127.52L127.521 43.5054ZM80.7052 48.8294C80.7045 50.0022 80.6502 51.5315 80.5845 52.2278L80.4652 53.494H83.9563H87.4477V50.2113V46.9287L84.4984 46.9261C82.8763 46.9247 81.3595 46.8726 81.1279 46.8105C80.7092 46.698 80.7065 46.7102 80.7052 48.8294ZM3.27695 53.6746C0.125273 53.7744 0.0938142 53.7795 0.106922 54.1974C0.114412 54.4296 0.135385 55.8856 0.153736 57.4332L0.187254 60.2468H3.46888H6.75051L6.93308 59.7657C7.1767 59.1236 7.16753 54.3169 6.92185 53.8568C6.81511 53.6572 6.66775 53.512 6.59415 53.5339C6.52056 53.5561 5.02777 53.6193 3.27695 53.6746ZM13.7203 53.7508C13.6651 53.8404 13.6362 55.2964 13.6561 56.9865L13.6922 60.0593H10.3304C7.80138 60.0593 6.952 60.1174 6.90163 60.2937C6.86492 60.4228 6.85893 63.5057 6.88852 67.1445L6.94226 73.761L10.3503 73.7098L13.7585 73.6588L13.7607 66.9997L13.7632 60.3406L16.8529 60.2468L19.9426 60.1531L19.9939 56.9173C20.022 55.1376 19.9798 53.6789 19.9002 53.6757C17.6193 53.5831 13.795 53.6294 13.7203 53.7508ZM27.0073 56.8668L27.0582 60.1531L30.2884 60.2045L33.5185 60.2557V63.3464C33.5185 65.0463 33.5185 66.4901 33.5183 66.5548C33.5183 66.6195 30.5162 66.6829 26.8472 66.6955L20.1761 66.7183L20.2109 70.1775C20.23 72.0801 20.2955 73.7175 20.3564 73.8164C20.424 73.9259 21.655 73.9535 23.5201 73.8873L26.5729 73.7789L26.6283 76.9077C26.6588 78.6285 26.6307 80.1065 26.5661 80.1918C26.5013 80.2774 22.0353 80.3196 16.6417 80.2856L6.83478 80.2241L6.89938 83.6005C6.93515 85.4576 6.98701 87.001 7.0151 87.0302C7.04319 87.0595 11.4888 87.0794 16.8943 87.0741L26.7223 87.0648L26.8903 90.4809L27.0582 93.8972L30.3775 93.8574L33.6969 93.8176L33.7481 97.0564L33.7994 100.295H43.8175H53.8356L53.8848 93.5891L53.9339 86.8832H50.6775C48.0052 86.8832 47.3792 86.9338 47.1871 87.1657C47.0128 87.3761 46.9738 88.2504 47.0345 90.589L47.1161 93.7298H40.5049H33.8939L33.8934 90.3534L33.8928 86.977H40.4937H47.0944L47.1455 83.5266L47.1967 80.0763L43.8218 80.1733L40.4469 80.27V77.1052V73.9402H47.0008H53.5547V75.5057C53.5547 76.3669 53.6094 77.8441 53.6764 78.7884L53.7979 80.5055H56.8367C59.0467 80.5055 59.9247 80.4415 60.0558 80.271C60.1661 80.1277 60.2148 77.4487 60.1811 73.3774L60.1258 66.7183L50.2527 66.6825L40.3793 66.6469L40.4261 63.6812C40.452 62.0502 40.416 60.568 40.3463 60.3875C40.2325 60.0927 39.8936 60.0593 37.0095 60.0593H33.7994L33.7374 56.9177C33.7033 55.1899 33.6612 53.7639 33.6438 53.7489C33.6264 53.7339 32.1147 53.69 30.2842 53.6512L26.9564 53.5808L27.0073 56.8668ZM40.2596 56.7989C40.2596 58.58 40.3244 60.0773 40.4036 60.1262C40.4827 60.1752 41.9785 60.2386 43.7274 60.2671L46.9072 60.3191L46.9585 57.0899C46.9978 54.6037 46.9547 53.8431 46.7712 53.784C46.64 53.7416 45.1211 53.6741 43.3962 53.6339L40.2596 53.5609V56.7989ZM60.3606 53.7825C60.3196 53.8898 60.3095 55.367 60.3378 57.0651L60.3895 60.1531L63.8025 60.2041L67.2156 60.2553L67.2667 63.5805L67.3179 66.9059L70.5898 66.8485C72.3891 66.817 73.8757 66.7748 73.8933 66.7547C73.9107 66.7347 73.9551 65.2412 73.992 63.4357L74.059 60.1531L70.6884 60.1024L67.3179 60.0516L67.3772 56.9593C67.424 54.5279 67.384 53.8489 67.19 53.7821C66.6374 53.5921 60.4333 53.5923 60.3606 53.7825ZM160.588 53.633C160.527 53.6941 160.477 55.2071 160.477 56.9955V60.2468H163.941C167.405 60.2468 167.405 60.2468 167.418 59.8248C167.445 58.9734 167.379 53.78 167.341 53.7421C167.24 53.6416 160.685 53.5354 160.588 53.633ZM180.479 53.6868C180.446 53.7845 180.444 55.3004 180.475 57.0556L180.53 60.2468H183.986H187.441V63.555V66.8632L186.573 66.7439C186.095 66.6782 183.063 66.6246 179.836 66.6246H173.968L173.917 63.3888L173.865 60.1531L171.057 60.0992C169.512 60.0698 168.058 60.0925 167.827 60.1497C167.41 60.2527 167.405 60.2919 167.405 63.4393V66.6246H160.96C157.416 66.6246 154.382 66.6758 154.219 66.7384C153.956 66.8397 153.923 66.4756 153.923 63.4535V60.0546L147.042 60.1039L140.16 60.1531L140.225 63.4395L140.29 66.726L136.986 66.6538L133.683 66.5816L133.738 70.0736L133.793 73.5654L130.563 73.5652L127.333 73.565V76.9142V80.2635L130.022 80.3946C131.501 80.4666 132.93 80.4707 133.197 80.4036L133.682 80.2817L133.737 83.4418C133.768 85.1798 133.767 86.665 133.735 86.7425C133.703 86.82 132.294 86.8832 130.603 86.8832H127.529L127.478 83.6474L127.426 80.4117L123.897 80.3179C121.955 80.2663 120.274 80.2819 120.16 80.3526C119.892 80.5191 120.299 81.8273 121.725 85.384C123.753 90.4429 124.289 92.7083 124.888 98.7673C124.976 99.6545 125.133 100.302 125.284 100.395C125.421 100.48 125.938 100.502 126.433 100.443L127.333 100.337L127.354 103.411C127.366 105.102 127.387 106.612 127.401 106.767C127.423 107.004 127.911 107.048 130.559 107.048H133.692L133.742 110.424L133.793 113.801H137.048H140.302L140.282 110.424L140.261 107.048L137.074 106.997L133.887 106.945V103.761C133.887 101.345 133.943 100.573 134.121 100.564C134.25 100.558 137.234 100.537 140.752 100.517C144.271 100.498 147.206 100.426 147.276 100.357C147.345 100.288 147.391 98.7778 147.378 97.001L147.354 93.7705L150.44 93.8643C152.484 93.9264 153.593 93.8911 153.725 93.7597C154.033 93.4511 153.998 80.5053 153.689 80.5062C153.56 80.5066 152.064 80.4856 150.365 80.4593L147.275 80.4117V83.6943C147.275 86.2054 147.22 86.9725 147.041 86.9582C146.913 86.9479 145.375 86.9267 143.624 86.9113L140.441 86.8832V83.6005C140.441 81.1025 140.385 80.3166 140.207 80.3122C140.078 80.3092 138.603 80.3053 136.93 80.3038L133.887 80.3008V77.0266V73.7526H146.968H160.05L160.168 74.7374C160.233 75.2789 160.287 76.7985 160.288 78.1138L160.29 80.5055H163.847H167.405V90.4607V100.416L163.988 100.356L160.57 100.295V103.649V107.002L163.988 106.968L167.405 106.933V113.696V120.46H163.941H160.477V117.06V113.66L157.2 113.741L153.923 113.822V107.106V100.389H150.646H147.369V107.248V114.107L150.553 114.048L153.736 113.988L153.769 116.755C153.788 118.277 153.809 119.712 153.816 119.944L153.829 120.366H150.562H147.294L147.348 123.696C147.391 126.343 147.352 127.025 147.157 127.025C147.022 127.025 145.452 127.062 143.669 127.107L140.426 127.188L140.45 123.871L140.475 120.554L137.508 120.424C135.877 120.352 134.395 120.337 134.214 120.389C133.911 120.478 133.887 120.24 133.887 117.203V113.921L130.844 113.86C129.17 113.827 127.717 113.856 127.614 113.925C127.495 114.004 127.461 115.235 127.52 117.301L127.614 120.554H130.647H133.68L133.643 123.705L133.606 126.857L126.904 126.894L120.202 126.931L120.227 123.743L120.251 120.554H117.004H113.757L113.81 127.249L113.863 133.945L110.58 133.908L107.297 133.872V130.449V127.025H103.828H100.36L100.411 130.542L100.462 134.059L103.786 134.111L107.109 134.162L107.111 136.362C107.112 137.572 107.167 139.012 107.233 139.563L107.353 140.564L103.814 140.511L100.275 140.458L100.287 143.777L100.3 147.096H97.0568H93.8143L93.814 143.767L93.8136 140.437H83.8648H73.916L74.0334 138.655C74.098 137.675 74.1511 136.24 74.1515 135.466L74.1525 134.059H80.7532H87.3541L87.3256 130.678L87.2971 127.296L90.6026 127.301L93.908 127.307L93.9686 126.369C94.0538 125.05 93.745 124.139 93.1138 123.846C91.915 123.29 89.1431 122.36 88.3079 122.235C87.6305 122.133 87.3649 122.164 87.2398 122.358C87.1483 122.501 87.1277 123.565 87.1942 124.723C87.2923 126.436 87.2661 126.845 87.0535 126.919C86.9099 126.969 85.3422 127.034 83.57 127.064L80.3478 127.119L80.4601 125.409C80.5878 123.466 80.4642 122.711 80.0186 122.711C79.85 122.711 78.7999 123.006 77.685 123.367C75.5829 124.048 73.7673 124.224 72.7701 123.845C72.1391 123.604 70.8221 122.395 70.489 121.75C70.0772 120.952 70.1624 119.2 70.7036 117.339C72.1655 112.31 72.8804 109.113 72.8054 107.939L72.7482 107.048H66.522H60.2957L60.2958 103.622V100.197L57.0657 100.321C55.0701 100.398 53.7796 100.524 53.6891 100.652C53.6086 100.765 53.5665 102.23 53.5955 103.906L53.6483 106.955L46.8682 106.954L40.0879 106.954L40.2033 110.424L40.3184 113.895H37.0121H33.7057V120.329C33.7057 125.083 33.7644 126.821 33.9305 126.988C34.0965 127.154 35.8322 127.213 40.578 127.213H47.0008V130.595C47.0008 133.64 47.0336 133.991 47.3285 134.112C47.5086 134.186 48.9834 134.247 50.6054 134.247H53.5547L53.5768 140.25C53.589 143.551 53.6541 146.505 53.7213 146.815L53.8438 147.378L57.023 147.317L60.2022 147.256V153.911V160.567L56.9678 160.462L53.7335 160.357L53.7845 163.903L53.8356 167.449L60.6483 167.498L67.4609 167.547L67.3991 170.405C67.3652 171.977 67.3542 174.973 67.3744 177.062L67.4115 180.861H70.5995H73.7875L73.736 183.87L73.6845 186.88L63.76 186.918L53.8356 186.957L53.782 190.052C53.7526 191.754 53.7755 193.337 53.8326 193.569L53.9363 193.991H67.0295C77.3002 193.991 80.1547 193.941 80.271 193.757C80.3524 193.628 80.4341 192.102 80.4523 190.367L80.4854 187.212L93.8441 187.178L107.203 187.145L107.297 183.956L107.39 180.767L110.527 180.835C112.746 180.884 113.666 180.843 113.671 180.695C113.675 180.58 113.681 179.072 113.686 177.343L113.693 174.202L110.916 174.148C109.389 174.118 107.946 174.142 107.71 174.2C107.28 174.307 107.28 174.307 107.335 177.46L107.39 180.612L100.696 180.596L94.0027 180.579L94.002 177.39L94.0014 174.202L100.584 174.26C105.856 174.306 107.198 174.269 107.323 174.072C107.408 173.937 107.479 172.349 107.481 170.544L107.484 167.261L110.667 167.324L113.851 167.387V163.983V160.58L116.987 160.638L120.124 160.696L120.175 157.272L120.226 153.849L117.085 153.849L113.944 153.848L113.892 144.235C113.863 138.948 113.909 134.519 113.994 134.392C114.11 134.219 115.725 134.159 120.575 134.148C124.11 134.141 127.024 134.16 127.05 134.191C127.077 134.222 127.16 135.673 127.234 137.415L127.368 140.583L123.84 140.51L120.311 140.437L120.26 143.767C120.22 146.357 120.261 147.1 120.447 147.114C120.633 147.127 126.92 147.114 127.337 147.1C127.391 147.098 127.403 145.661 127.363 143.907L127.29 140.719H130.401C132.767 140.719 133.511 140.775 133.508 140.953C133.506 141.082 133.527 144.061 133.555 147.572L133.606 153.957L130.547 153.95L127.489 153.943L127.512 157.209C127.525 159.006 127.582 160.55 127.638 160.641C127.694 160.732 129.017 160.794 130.579 160.779L133.419 160.752L133.47 164.022L133.521 167.291L133.001 167.237C132.716 167.207 129.723 167.145 126.35 167.1L120.217 167.017V170.562V174.108H123.681H127.146V178.299C127.146 180.604 127.201 183.528 127.269 184.796L127.393 187.103L123.758 187.03L120.124 186.957L120.137 187.379C120.144 187.611 120.165 189.195 120.184 190.898L120.217 193.996L127.099 193.947L133.98 193.897L134.03 187.379L134.079 180.861H137.164H140.249L140.298 187.379L140.347 193.897L143.787 193.949C146.075 193.983 147.309 193.931 147.474 193.795C147.675 193.627 147.702 191.214 147.62 180.588C147.565 173.438 147.591 167.556 147.678 167.518C147.766 167.48 149.185 167.491 150.833 167.542L153.829 167.636L153.923 174.202L154.017 180.767H157.06H160.102L160.104 182.924C160.105 184.11 160.16 185.535 160.226 186.09L160.347 187.099L157.242 186.962L154.137 186.824L154.077 187.453C154.044 187.799 154.042 189.412 154.072 191.037L154.128 193.991H163.833C171.497 193.991 173.581 193.941 173.738 193.751C173.867 193.595 173.918 192.353 173.882 190.234L173.828 186.957L170.757 186.906L167.686 186.854L167.711 183.717L167.737 180.579L170.848 180.649L173.959 180.719V177.53C173.959 175.204 173.896 174.291 173.725 174.154C173.589 174.045 172.271 173.977 170.569 173.99L167.648 174.014L167.614 167.343L167.581 160.671L170.77 160.754L173.959 160.838V154.066V147.294L177.002 147.409C178.676 147.472 180.063 147.537 180.085 147.553C180.107 147.57 180.15 151.988 180.179 157.371L180.232 167.159L177.056 167.21L173.88 167.261L173.936 170.638C173.967 172.495 174.034 174.056 174.085 174.108C174.136 174.159 177.132 174.229 180.743 174.262C185.468 174.305 187.346 174.262 187.44 174.11C187.511 173.994 187.531 170.908 187.484 167.253L187.398 160.606L190.574 160.726C193.592 160.84 193.754 160.829 193.84 160.49C193.89 160.294 193.924 155.744 193.916 150.379L193.902 140.625H183.884H173.865L173.925 143.861L173.985 147.096L170.742 147.096L167.499 147.095L167.464 140.624L167.428 134.153H170.6C173.496 134.153 173.772 134.125 173.773 133.825C173.773 133.645 173.788 132.062 173.806 130.308L173.839 127.119L172.354 127.058C171.538 127.025 170.09 127.054 169.137 127.123L167.405 127.248V130.607V133.966H163.988L160.57 133.966L160.602 130.569L160.634 127.173L163.973 127.146L167.312 127.119L167.405 123.836C167.476 121.371 167.557 120.558 167.733 120.572C167.862 120.583 170.769 120.604 174.193 120.619L180.419 120.648L180.369 126.978C180.341 130.46 180.359 133.478 180.408 133.684C180.494 134.043 180.652 134.059 184.016 134.059H187.535L187.471 130.545L187.406 127.031L190.654 127.075L193.902 127.119V117.003V106.887L190.765 106.935L187.629 106.983V103.679V100.375L190.765 100.429L193.902 100.483L193.95 90.4042L193.998 80.3258L193.576 80.2222C193.343 80.1652 191.943 80.1423 190.464 80.1712L187.775 80.2241L187.749 76.9651L187.722 73.7061L190.812 73.7762L193.902 73.8464L193.951 66.9528L194 60.0593H190.819H187.637L187.586 56.8586L187.535 53.6581L184.037 53.5836C181.934 53.539 180.515 53.5801 180.479 53.6868ZM167.55 73.5729L167.602 80.3336L170.734 80.3079L173.865 80.2822L174.004 83.6296C174.081 85.4707 174.123 93.0123 174.098 100.389L174.053 113.801L177.247 113.835L180.442 113.869L180.431 103.706L180.419 93.5422L183.884 93.6088L187.348 93.6754V90.3631V87.0509L184.016 87.0844C182.184 87.1028 180.635 87.0677 180.574 87.0064C180.391 86.8235 180.375 86.3039 180.35 79.8958L180.326 73.7526H177.142H173.959V70.2824V66.8121H170.729L167.499 66.812L167.55 73.5729ZM93.8664 73.2788C90.7733 73.7595 86.4442 75.5023 83.7532 77.3502C82.0814 78.4982 79.2565 81.2426 78.0331 82.9074C76.7036 84.7164 74.9582 88.4022 74.4397 90.4948C73.0567 96.0787 73.3879 100.916 75.5046 106.048C76.5089 108.483 76.5375 109.487 75.6688 111.808C74.2159 115.69 73.2396 120.114 73.6787 120.826C73.936 121.243 75.3353 120.93 79.583 119.505C83.4197 118.218 83.6927 118.154 85.3879 118.144C86.9666 118.133 87.388 118.209 89.133 118.815C92.7429 120.071 93.8666 120.3 96.904 120.405C98.9852 120.477 100.15 120.425 101.401 120.207C107.146 119.204 112.534 115.797 116.32 110.774C117.304 109.469 119.289 105.529 119.907 103.653C121.409 99.0997 121.279 93.2164 119.576 88.6852C117.519 83.21 113.569 78.7163 108.233 75.7788C107.283 75.2559 104.773 74.2619 103.077 73.737C100.663 72.9899 96.9218 72.8038 93.8664 73.2788ZM67.302 73.737C67.2593 73.78 67.2242 75.1776 67.2242 76.8432C67.2242 78.9765 67.2937 79.9662 67.4594 80.1931C67.6679 80.4788 68.0433 80.5094 70.7832 80.4634L73.8718 80.4117L73.9654 77.2508C74.0169 75.5121 74.0165 74.0212 73.9646 73.9377C73.8695 73.7847 67.4467 73.5913 67.302 73.737ZM94.2825 77.9769C86.8397 79.3481 81.4308 83.98 79.0038 91.0608C78.2118 93.3716 77.964 95.8846 78.2505 98.6973C78.5584 101.717 79.0115 103.207 80.5517 106.262C81.566 108.273 81.5533 108.904 80.4339 112.116C79.9673 113.455 79.5849 114.657 79.5841 114.786C79.5825 115.144 80.004 115.072 81.5726 114.448C83.5537 113.66 85.6858 113.271 86.7299 113.507C87.8471 113.76 90.1734 114.524 91.21 114.979C93.7089 116.076 98.4831 116.405 101.585 115.694C107.626 114.31 113.099 109.557 115.348 103.742C117.133 99.1226 116.75 92.797 114.399 88.1124C111.92 83.1708 106.789 79.2973 101.211 78.1553C99.0829 77.7197 96.0958 77.6428 94.2825 77.9769ZM88.8521 86.2383C87.2131 87.0865 85.3879 89.7466 85.3879 91.2872C85.3879 93.2855 86.6041 95.6643 89.6187 99.5622C93.3945 104.445 100.138 108.26 104.163 107.792C106.591 107.51 109.169 105.285 109.169 103.472C109.169 102.648 108.489 101.952 106.591 100.833C103.576 99.0556 103.08 99.0839 101.275 101.138C100.081 102.497 99.7555 102.543 98.2901 101.561C96.1073 100.097 92.2062 96.3537 91.998 95.5231C91.9139 95.1877 92.0588 94.7332 92.508 93.9232C93.6773 91.8148 93.302 89.4577 91.4403 87.2144C90.3777 85.9338 89.8354 85.7294 88.8521 86.2383ZM60.2803 86.9608C60.2374 87.0036 60.2269 88.6157 60.2571 90.543L60.3121 94.0474L63.6541 93.9823L66.9962 93.9174L67.1085 94.8553C67.1703 95.3711 67.2218 96.7746 67.2226 97.9744C67.2246 100.582 67.2877 100.682 68.8058 100.492C69.5271 100.402 69.8565 100.271 69.9235 100.048C69.9758 99.8746 70.1525 98.4662 70.3166 96.9187C70.5971 94.2695 70.9725 91.8225 71.597 88.5714C71.7457 87.7976 71.8288 87.1013 71.7818 87.0238C71.6947 86.8805 60.4228 86.8188 60.2803 86.9608ZM134.015 87.1927C133.944 87.2632 133.887 88.7438 133.887 90.483V93.6454L133.372 93.8461C133.061 93.9675 131.802 94.0213 130.191 93.9823C128.724 93.9467 127.523 93.9806 127.522 94.0581C127.521 94.1356 127.52 95.5916 127.52 97.2938V100.389H130.704H133.888L133.765 97.1275L133.642 93.866L134.268 93.7283C134.612 93.6527 136.078 93.622 137.527 93.6602C138.975 93.6985 140.181 93.6666 140.207 93.5891C140.232 93.5117 140.253 92.0322 140.253 90.3011V87.1537L137.198 87.1092C135.518 87.0846 134.085 87.1223 134.015 87.1927ZM13.5514 93.914C13.4845 94.0883 13.4896 95.6144 13.5624 97.3055L13.695 100.38L10.2649 100.431L6.83478 100.483L6.78347 103.714L6.73235 106.946L3.45128 106.997L0.170213 107.048L0.132015 110.518L0.0936271 113.988L3.37057 114.04L6.64752 114.091L6.70726 117.276C6.76287 120.246 6.74396 120.461 6.42638 120.475C6.23893 120.484 4.73978 120.505 3.09456 120.522L0.103552 120.554L0.0984959 123.787C0.0947508 126.31 0.148493 127.041 0.34305 127.116C0.814368 127.299 6.20186 127.214 6.56625 127.019C6.90181 126.839 6.9284 126.598 6.9284 123.736V120.648H10.2054H13.4823V123.832V127.017L10.1585 127.068L6.83478 127.119L6.80014 130.581L6.76549 134.043L3.47637 133.99L0.187254 133.936V137.238V140.54L3.51102 140.488L6.83478 140.437L6.8859 137.342L6.93702 134.247L16.8641 134.283L26.7912 134.319L26.8873 137.372C26.9401 139.051 27.0285 140.47 27.0835 140.525C27.1386 140.58 28.6501 140.625 30.4423 140.625C32.9831 140.625 33.7222 140.57 33.7969 140.375C33.8497 140.238 33.893 137.178 33.893 133.575V127.025H27.1034H20.3137L20.3665 123.696L20.4193 120.366H23.6071H26.7948L26.7908 110.331L26.7871 100.295H23.5051H20.2231L20.2233 97.0594L20.2234 93.8236H17.2427C15.6033 93.8236 14.1294 93.7726 13.9673 93.7103C13.7875 93.6413 13.6254 93.7206 13.5514 93.914ZM0.148867 97.0072C0.118532 98.7123 0.119655 100.171 0.151488 100.248C0.183321 100.326 1.72311 100.389 3.57337 100.389H6.9372L6.88609 97.1984L6.83478 94.0076L3.51944 93.9574L0.203919 93.9069L0.148867 97.0072ZM40.2596 117.224V120.46H43.7238H47.188V123.743V127.025H53.7419H60.2958V130.507V133.988L66.9902 133.905C70.6722 133.86 73.7057 133.77 73.7313 133.706C73.757 133.643 73.7781 132.177 73.7781 130.449V127.307L70.5534 127.245C68.7798 127.211 67.263 127.143 67.1829 127.093C67.1025 127.044 67.0368 126.058 67.0366 124.904C67.0362 123.749 66.9808 120.842 66.913 118.443L66.79 114.082H60.2659H53.7419V117.393V120.705L50.5313 120.596C48.1689 120.516 47.2791 120.421 47.1635 120.239C47.0772 120.103 47.0051 118.64 47.0032 116.99L46.9999 113.988H43.6297H40.2596V117.224ZM183.823 114.035L180.486 114.091L180.547 117.229L180.607 120.366L183.93 120.417L187.254 120.469V117.182C187.254 115.374 187.233 113.914 187.207 113.937C187.182 113.96 185.659 114.004 183.823 114.035ZM147.369 130.528V133.778H150.536C153.451 133.778 153.697 133.752 153.64 133.45C153.605 133.269 153.57 131.813 153.562 130.214L153.547 127.307L150.458 127.292L147.369 127.278V130.528ZM40.3244 134.067C40.2834 134.174 40.2733 135.651 40.3016 137.349L40.3533 140.437L43.5366 140.531C45.2874 140.583 46.8253 140.551 46.954 140.461C47.1251 140.342 47.188 139.471 47.188 137.229C47.188 134.199 47.1828 134.159 46.7667 134.068C45.8778 133.873 40.3988 133.872 40.3244 134.067ZM60.2958 143.924V147.088L63.8069 147.139L67.3179 147.19L67.369 150.52L67.4201 153.849H80.5236H93.6271V150.566V147.284H80.6195C67.951 147.284 67.6068 147.274 67.4181 146.921C67.3089 146.716 67.2239 145.305 67.2231 143.685L67.2222 140.812L63.7589 140.786L60.2958 140.759V143.924ZM140.628 150.52V160.321H150.368H160.108L160.099 150.52L160.09 140.719H150.359H140.628V150.52ZM0 170.432V193.768L1.92329 193.899C5.2169 194.124 46.7635 193.929 47.0045 193.687C47.1583 193.533 47.1779 187.309 47.0783 170.287L46.9426 147.096H23.4712H0V170.432ZM147.455 150.515L147.542 153.943H150.686H153.829V150.566V147.19L150.599 147.139L147.368 147.087L147.455 150.515ZM7.11566 170.557V186.796L23.594 186.783L40.0724 186.769L40.0722 180.204C40.072 176.593 40.0164 169.292 39.9484 163.978L39.825 154.318H23.4702H7.11566V170.557ZM100.33 157.25C100.295 159.152 100.344 160.297 100.462 160.334C100.565 160.366 102.149 160.42 103.982 160.454C107.246 160.514 107.314 160.508 107.225 160.137C107.175 159.928 107.11 158.513 107.08 156.991L107.025 154.224H103.705H100.386L100.33 157.25ZM13.6984 170.401C13.7364 175.793 13.8347 180.31 13.9169 180.439C14.0332 180.621 16.1853 180.672 23.6519 180.67C28.924 180.669 33.3438 180.6 33.4734 180.517C33.6589 180.399 33.6988 178.276 33.6606 170.532L33.6121 160.696L23.6206 160.647L13.6293 160.599L13.6984 170.401ZM67.5051 164.021V167.261L70.6461 167.322L73.7871 167.383L73.7358 164.133L73.6845 160.883L70.5948 160.832L67.5051 160.781V164.021ZM80.332 164.063V167.355H77.1467H73.9613L74.0101 173.967L74.059 180.579L77.1487 180.568L80.2384 180.557V177.286V174.014H83.609H86.9796L87.0732 170.554L87.1668 167.095L90.0481 167.147C91.6328 167.175 93.0462 167.244 93.1891 167.299C93.4056 167.382 93.4404 166.863 93.3975 164.186L93.3462 160.974L86.8391 160.873L80.332 160.771V164.063ZM53.7845 177.245L53.8356 180.579H57.0189H60.2022V177.297V174.014L56.9678 173.963L53.7333 173.911L53.7845 177.245ZM190.437 174.099L187.535 174.202L187.484 177.462L187.432 180.723L183.97 180.587L180.508 180.45L180.557 187.174L180.607 193.897L187.055 193.947C190.602 193.974 193.573 193.927 193.657 193.842C193.742 193.757 193.824 192.174 193.84 190.322L193.87 186.957H190.781H187.692L187.707 183.8L187.722 180.643L190.63 180.774C193.097 180.885 193.574 180.862 193.771 180.623C193.942 180.418 193.991 179.492 193.953 177.18C193.91 174.524 193.857 174.017 193.621 174.007C193.466 174.001 192.034 174.042 190.437 174.099ZM108.888 187.035L107.39 187.145L107.339 190.572L107.288 194L110.522 193.949L113.757 193.897V190.427V186.957L112.072 186.941C111.145 186.933 109.712 186.975 108.888 187.035Z" fill="black"></path><path fill-rule="evenodd" clip-rule="evenodd" d="M0 23.2815V46.5464L0.43312 46.6554C0.671494 46.7152 11.2255 46.7379 23.8867 46.7058L46.9072 46.6473L46.9658 31.2658C46.9978 22.8059 46.9671 12.3262 46.8972 7.97758L46.7701 0.0707173L23.385 0.0437064L0 0.0165065V23.2815ZM67.3647 0.138996C67.1731 0.336517 67.1913 6.25653 67.3843 6.56135C67.5029 6.74874 68.2379 6.79207 70.565 6.74893L73.5914 6.69284L73.5911 13.305L73.5909 19.9172H70.4076H67.2242V16.6346V13.3519H63.76H60.2958V9.97549V6.59905H57.0146H53.7335L53.7845 10.0224L53.8356 13.4457L56.9721 13.4971L60.1086 13.5485V20.1093V26.6701H56.9211H53.7337L53.7846 30.1872L53.8356 33.7043L56.9496 33.6411L60.0638 33.5779L60.1387 36.6855C60.1822 38.4889 60.2957 39.8755 60.4089 39.989C60.534 40.1143 61.8117 40.1663 63.9612 40.1334L67.3179 40.082L67.3671 33.4652L67.4164 26.8485L73.6401 26.8578C77.0631 26.8629 79.9693 26.865 80.098 26.8623C80.2764 26.8588 80.332 26.0501 80.332 23.4578V20.0579L80.9172 20.1751C81.2391 20.2397 82.7559 20.2924 84.2878 20.2924H87.0732V23.575V26.8577L89.6479 26.8882C91.0641 26.9051 92.5376 26.9263 92.9226 26.9351L93.6226 26.9515L93.7016 30.1606L93.7808 33.3699L87.1031 33.3494L80.4257 33.3292V39.9413V46.5535L77.4296 46.5565C75.7818 46.558 74.3086 46.6383 74.156 46.7349C73.9176 46.8859 73.8875 47.8293 73.941 53.4381C73.9852 58.0865 74.0652 60.0056 74.2184 60.1047C74.3367 60.1812 77.3693 60.2234 80.9576 60.1985L87.4816 60.1531L87.4569 56.9173L87.4322 53.6816H90.5934H93.7546L93.8776 58.0428C93.9454 60.4414 94.0008 63.3537 94.0012 64.5143L94.0016 66.6246L84.2176 66.6274C78.8364 66.6291 74.3214 66.7015 74.1843 66.7885C73.9911 66.9114 73.9397 67.6789 73.9562 70.2056C73.968 71.9982 74.038 73.5211 74.1118 73.5901C74.2373 73.7072 79.3162 74.1292 80.9874 74.1613C81.5065 74.1714 82.2827 73.918 83.5154 73.3362C85.163 72.5585 87.958 71.4532 91.9942 69.983C92.8985 69.6536 93.6981 69.2908 93.7713 69.1768C93.8443 69.0627 93.9471 68.505 93.9995 67.9376L94.0952 66.9059L100.743 66.8958L107.39 66.8857L107.44 60.2836L107.489 53.6816H110.67H113.851V46.9287V40.1758H117.03H120.209L120.26 43.5054L120.311 46.8349L123.728 46.8191L127.146 46.8034V53.1346C127.146 56.6168 127.202 59.6119 127.27 59.7903C127.386 60.0927 127.163 60.1082 123.996 60.0173C121.597 59.9484 120.553 59.9816 120.444 60.1302C120.36 60.2459 120.325 61.7985 120.367 63.5805L120.442 66.8202L123.934 66.7694L127.426 66.7183L127.36 63.4826C127.307 60.8595 127.342 60.2446 127.548 60.2348C127.687 60.2283 129.212 60.2333 130.937 60.2459L134.074 60.2692L134.074 56.9286L134.074 53.5878L137.163 53.6508L140.253 53.7138V40.192V26.6701H136.976H133.699V29.933V33.1958L127.099 33.274C123.468 33.3168 120.456 33.334 120.404 33.3119C120.353 33.29 120.335 31.8075 120.365 30.0178L120.42 26.7639L126.826 26.813C130.752 26.8432 133.34 26.7916 133.512 26.6796C133.737 26.5331 133.812 25.858 133.887 23.2693L133.98 20.0414L137.137 20.0262L140.294 20.011L140.32 13.3311L140.347 6.65101L137.164 6.5501C135.413 6.49457 133.917 6.48782 133.84 6.53509C133.763 6.58255 133.699 9.5932 133.699 13.2255V19.83L126.959 19.8266L120.218 19.8234L120.218 16.6815L120.217 13.5395H123.869H127.52V6.90049C127.52 1.758 127.467 0.242916 127.286 0.179514C127.157 0.134307 122.603 0.075595 117.166 0.0487711L107.28 0L107.335 3.32748L107.39 6.65495L104.207 6.53377C102.456 6.46718 99.4035 6.41241 97.4235 6.41204L93.8233 6.41147L93.772 3.32129L93.7207 0.231099L90.5436 0.179326L87.3662 0.127554L87.4241 3.26951L87.4822 6.41147H80.6301H73.7781V3.31641V0.221344H71.7459C70.628 0.221344 69.2166 0.170322 68.6094 0.107858C68.0021 0.0453937 67.442 0.0594623 67.3647 0.138996ZM147.509 18.3697C147.484 28.4545 147.463 38.9425 147.463 41.6765L147.464 46.6473H170.683H193.902V23.4812V0.315134L191.748 0.19921C190.564 0.135246 180.136 0.0720314 168.576 0.0585256L147.556 0.0337644L147.509 18.3697ZM7.08364 6.78663C7.06603 6.83822 7.04488 14.3339 7.03682 23.4435C7.02203 39.9188 7.02409 40.0062 7.39654 39.9063C7.60252 39.8509 15.0517 39.8046 23.9504 39.8033L40.1297 39.8007L40.0078 23.3405L39.8861 6.88042L36.8426 6.83447C30.2897 6.73524 7.11378 6.6981 7.08364 6.78663ZM87.4091 9.97118L87.3541 13.3523L90.6033 13.3521L93.8525 13.3519L93.7844 10.0224L93.7162 6.69284L90.5902 6.64145L87.4642 6.59005L87.4091 9.97118ZM154.11 23.2289V39.9098L170.682 39.911L187.254 39.9121V23.3494V6.78663H171.551C162.914 6.78663 155.457 6.73299 154.979 6.66733L154.11 6.54803V23.2289ZM114.038 10.0693V13.3519L117.081 13.3521H120.124V10.0697V6.7872L117.081 6.78701L114.038 6.78663V10.0693ZM13.8366 13.6802C13.7679 14.1553 13.904 33.3475 13.9767 33.4655C14.0259 33.5452 18.4326 33.6105 23.7695 33.6105C31.6945 33.6105 33.5112 33.564 33.6827 33.3569C33.9205 33.0699 33.8722 14.1486 33.6325 13.7603C33.5309 13.5956 31.0057 13.5395 23.6766 13.5395C18.2756 13.5395 13.8476 13.6029 13.8366 13.6802ZM100.556 16.7552L100.556 20.011L103.88 20.005L107.203 19.9988V16.8642V13.7293L104.175 13.7282C102.51 13.7276 101.015 13.6759 100.852 13.6132C100.589 13.5121 100.555 13.8633 100.556 16.7552ZM160.384 23.4126C160.308 28.7955 160.302 33.2922 160.372 33.4051C160.461 33.5498 163.432 33.6105 170.414 33.6105H180.329L180.281 23.6283L180.232 13.6459L170.377 13.6357L160.522 13.6256L160.384 23.4126ZM107.254 23.4343L107.203 26.7639L103.758 26.7768L100.313 26.7896L100.294 30.1532L100.275 33.5167H97.1849H94.0952V36.6651C94.0952 39.2571 94.0456 39.8455 93.8143 39.9961C93.6582 40.0978 92.2032 40.1704 90.5374 40.1595L87.5413 40.14L87.4902 43.3936L87.4389 46.6473L89.9245 46.5967C91.2915 46.5689 92.7359 46.5267 93.1342 46.5029L93.8585 46.4597L93.8832 43.2709L93.908 40.082L97.1381 40.0306L100.368 39.9794V46.6428V53.3064H102.681C103.954 53.3064 105.513 53.3606 106.146 53.4268L107.297 53.5474V46.7677V39.9882H110.503H113.709L113.639 30.0469L113.57 20.1054L110.437 20.1052L107.305 20.1048L107.254 23.4343ZM53.7039 43.3178C53.7464 45.1489 53.8356 46.6895 53.9021 46.7411C53.9685 46.7927 55.4343 46.81 57.1593 46.7792L60.2958 46.7237L60.3286 44.2938C60.3466 42.9574 60.3762 41.6286 60.3941 41.3409C60.4121 41.0531 60.358 40.6311 60.2737 40.403C60.1239 39.9969 60.0528 39.9882 56.8738 39.9882H53.6268L53.7039 43.3178ZM67.4298 40.2475C67.2821 40.4257 67.2312 41.4966 67.2664 43.6708L67.3179 46.8349L70.5012 46.7685C72.252 46.7321 73.7476 46.6638 73.825 46.6167C73.9023 46.5699 73.9654 45.0593 73.9654 43.2598V39.9882H70.8049C68.3438 39.9882 67.5971 40.0456 67.4298 40.2475ZM127.521 43.5054L127.522 46.6473L130.517 46.6561L133.512 46.665V43.5142V40.3634H130.516H127.52L127.521 43.5054ZM80.7052 48.8294C80.7045 50.0022 80.6502 51.5315 80.5845 52.2278L80.4652 53.494H83.9563H87.4477V50.2113V46.9287L84.4984 46.9261C82.8763 46.9247 81.3595 46.8726 81.1279 46.8105C80.7092 46.698 80.7065 46.7102 80.7052 48.8294ZM3.27695 53.6746C0.125273 53.7744 0.0938142 53.7795 0.106922 54.1974C0.114412 54.4296 0.135385 55.8856 0.153736 57.4332L0.187254 60.2468H3.46888H6.75051L6.93308 59.7657C7.1767 59.1236 7.16753 54.3169 6.92185 53.8568C6.81511 53.6572 6.66775 53.512 6.59415 53.5339C6.52056 53.5561 5.02777 53.6193 3.27695 53.6746ZM13.7203 53.7508C13.6651 53.8404 13.6362 55.2964 13.6561 56.9865L13.6922 60.0593H10.3304C7.80138 60.0593 6.952 60.1174 6.90163 60.2937C6.86492 60.4228 6.85893 63.5057 6.88852 67.1445L6.94226 73.761L10.3503 73.7098L13.7585 73.6588L13.7607 66.9997L13.7632 60.3406L16.8529 60.2468L19.9426 60.1531L19.9939 56.9173C20.022 55.1376 19.9798 53.6789 19.9002 53.6757C17.6193 53.5831 13.795 53.6294 13.7203 53.7508ZM27.0073 56.8668L27.0582 60.1531L30.2884 60.2045L33.5185 60.2557V63.3464C33.5185 65.0463 33.5185 66.4901 33.5183 66.5548C33.5183 66.6195 30.5162 66.6829 26.8472 66.6955L20.1761 66.7183L20.2109 70.1775C20.23 72.0801 20.2955 73.7175 20.3564 73.8164C20.424 73.9259 21.655 73.9535 23.5201 73.8873L26.5729 73.7789L26.6283 76.9077C26.6588 78.6285 26.6307 80.1065 26.5661 80.1918C26.5013 80.2774 22.0353 80.3196 16.6417 80.2856L6.83478 80.2241L6.89938 83.6005C6.93515 85.4576 6.98701 87.001 7.0151 87.0302C7.04319 87.0595 11.4888 87.0794 16.8943 87.0741L26.7223 87.0648L26.8903 90.4809L27.0582 93.8972L30.3775 93.8574L33.6969 93.8176L33.7481 97.0564L33.7994 100.295H43.8175H53.8356L53.8848 93.5891L53.9339 86.8832H50.6775C48.0052 86.8832 47.3792 86.9338 47.1871 87.1657C47.0128 87.3761 46.9738 88.2504 47.0345 90.589L47.1161 93.7298H40.5049H33.8939L33.8934 90.3534L33.8928 86.977H40.4937H47.0944L47.1455 83.5266L47.1967 80.0763L43.8218 80.1733L40.4469 80.27V77.1052V73.9402H47.0008H53.5547V75.5057C53.5547 76.3669 53.6094 77.8441 53.6764 78.7884L53.7979 80.5055H56.8367C59.0467 80.5055 59.9247 80.4415 60.0558 80.271C60.1661 80.1277 60.2148 77.4487 60.1811 73.3774L60.1258 66.7183L50.2527 66.6825L40.3793 66.6469L40.4261 63.6812C40.452 62.0502 40.416 60.568 40.3463 60.3875C40.2325 60.0927 39.8936 60.0593 37.0095 60.0593H33.7994L33.7374 56.9177C33.7033 55.1899 33.6612 53.7639 33.6438 53.7489C33.6264 53.7339 32.1147 53.69 30.2842 53.6512L26.9564 53.5808L27.0073 56.8668ZM40.2596 56.7989C40.2596 58.58 40.3244 60.0773 40.4036 60.1262C40.4827 60.1752 41.9785 60.2386 43.7274 60.2671L46.9072 60.3191L46.9585 57.0899C46.9978 54.6037 46.9547 53.8431 46.7712 53.784C46.64 53.7416 45.1211 53.6741 43.3962 53.6339L40.2596 53.5609V56.7989ZM60.3606 53.7825C60.3196 53.8898 60.3095 55.367 60.3378 57.0651L60.3895 60.1531L63.8025 60.2041L67.2156 60.2553L67.2667 63.5805L67.3179 66.9059L70.5898 66.8485C72.3891 66.817 73.8757 66.7748 73.8933 66.7547C73.9107 66.7347 73.9551 65.2412 73.992 63.4357L74.059 60.1531L70.6884 60.1024L67.3179 60.0516L67.3772 56.9593C67.424 54.5279 67.384 53.8489 67.19 53.7821C66.6374 53.5921 60.4333 53.5923 60.3606 53.7825ZM160.588 53.633C160.527 53.6941 160.477 55.2071 160.477 56.9955V60.2468H163.941C167.405 60.2468 167.405 60.2468 167.418 59.8248C167.445 58.9734 167.379 53.78 167.341 53.7421C167.24 53.6416 160.685 53.5354 160.588 53.633ZM180.479 53.6868C180.446 53.7845 180.444 55.3004 180.475 57.0556L180.53 60.2468H183.986H187.441V63.555V66.8632L186.573 66.7439C186.095 66.6782 183.063 66.6246 179.836 66.6246H173.968L173.917 63.3888L173.865 60.1531L171.057 60.0992C169.512 60.0698 168.058 60.0925 167.827 60.1497C167.41 60.2527 167.405 60.2919 167.405 63.4393V66.6246H160.96C157.416 66.6246 154.382 66.6758 154.219 66.7384C153.956 66.8397 153.923 66.4756 153.923 63.4535V60.0546L147.042 60.1039L140.16 60.1531L140.225 63.4395L140.29 66.726L136.986 66.6538L133.683 66.5816L133.738 70.0736L133.793 73.5654L130.563 73.5652L127.333 73.565V76.9142V80.2635L130.022 80.3946C131.501 80.4666 132.93 80.4707 133.197 80.4036L133.682 80.2817L133.737 83.4418C133.768 85.1798 133.767 86.665 133.735 86.7425C133.703 86.82 132.294 86.8832 130.603 86.8832H127.529L127.478 83.6474L127.426 80.4117L123.897 80.3179C121.955 80.2663 120.274 80.2819 120.16 80.3526C119.892 80.5191 120.299 81.8273 121.725 85.384C123.753 90.4429 124.289 92.7083 124.888 98.7673C124.976 99.6545 125.133 100.302 125.284 100.395C125.421 100.48 125.938 100.502 126.433 100.443L127.333 100.337L127.354 103.411C127.366 105.102 127.387 106.612 127.401 106.767C127.423 107.004 127.911 107.048 130.559 107.048H133.692L133.742 110.424L133.793 113.801H137.048H140.302L140.282 110.424L140.261 107.048L137.074 106.997L133.887 106.945V103.761C133.887 101.345 133.943 100.573 134.121 100.564C134.25 100.558 137.234 100.537 140.752 100.517C144.271 100.498 147.206 100.426 147.276 100.357C147.345 100.288 147.391 98.7778 147.378 97.001L147.354 93.7705L150.44 93.8643C152.484 93.9264 153.593 93.8911 153.725 93.7597C154.033 93.4511 153.998 80.5053 153.689 80.5062C153.56 80.5066 152.064 80.4856 150.365 80.4593L147.275 80.4117V83.6943C147.275 86.2054 147.22 86.9725 147.041 86.9582C146.913 86.9479 145.375 86.9267 143.624 86.9113L140.441 86.8832V83.6005C140.441 81.1025 140.385 80.3166 140.207 80.3122C140.078 80.3092 138.603 80.3053 136.93 80.3038L133.887 80.3008V77.0266V73.7526H146.968H160.05L160.168 74.7374C160.233 75.2789 160.287 76.7985 160.288 78.1138L160.29 80.5055H163.847H167.405V90.4607V100.416L163.988 100.356L160.57 100.295V103.649V107.002L163.988 106.968L167.405 106.933V113.696V120.46H163.941H160.477V117.06V113.66L157.2 113.741L153.923 113.822V107.106V100.389H150.646H147.369V107.248V114.107L150.553 114.048L153.736 113.988L153.769 116.755C153.788 118.277 153.809 119.712 153.816 119.944L153.829 120.366H150.562H147.294L147.348 123.696C147.391 126.343 147.352 127.025 147.157 127.025C147.022 127.025 145.452 127.062 143.669 127.107L140.426 127.188L140.45 123.871L140.475 120.554L137.508 120.424C135.877 120.352 134.395 120.337 134.214 120.389C133.911 120.478 133.887 120.24 133.887 117.203V113.921L130.844 113.86C129.17 113.827 127.717 113.856 127.614 113.925C127.495 114.004 127.461 115.235 127.52 117.301L127.614 120.554H130.647H133.68L133.643 123.705L133.606 126.857L126.904 126.894L120.202 126.931L120.227 123.743L120.251 120.554H117.004H113.757L113.81 127.249L113.863 133.945L110.58 133.908L107.297 133.872V130.449V127.025H103.828H100.36L100.411 130.542L100.462 134.059L103.786 134.111L107.109 134.162L107.111 136.362C107.112 137.572 107.167 139.012 107.233 139.563L107.353 140.564L103.814 140.511L100.275 140.458L100.287 143.777L100.3 147.096H97.0568H93.8143L93.814 143.767L93.8136 140.437H83.8648H73.916L74.0334 138.655C74.098 137.675 74.1511 136.24 74.1515 135.466L74.1525 134.059H80.7532H87.3541L87.3256 130.678L87.2971 127.296L90.6026 127.301L93.908 127.307L93.9686 126.369C94.0538 125.05 93.745 124.139 93.1138 123.846C91.915 123.29 89.1431 122.36 88.3079 122.235C87.6305 122.133 87.3649 122.164 87.2398 122.358C87.1483 122.501 87.1277 123.565 87.1942 124.723C87.2923 126.436 87.2661 126.845 87.0535 126.919C86.9099 126.969 85.3422 127.034 83.57 127.064L80.3478 127.119L80.4601 125.409C80.5878 123.466 80.4642 122.711 80.0186 122.711C79.85 122.711 78.7999 123.006 77.685 123.367C75.5829 124.048 73.7673 124.224 72.7701 123.845C72.1391 123.604 70.8221 122.395 70.489 121.75C70.0772 120.952 70.1624 119.2 70.7036 117.339C72.1655 112.31 72.8804 109.113 72.8054 107.939L72.7482 107.048H66.522H60.2957L60.2958 103.622V100.197L57.0657 100.321C55.0701 100.398 53.7796 100.524 53.6891 100.652C53.6086 100.765 53.5665 102.23 53.5955 103.906L53.6483 106.955L46.8682 106.954L40.0879 106.954L40.2033 110.424L40.3184 113.895H37.0121H33.7057V120.329C33.7057 125.083 33.7644 126.821 33.9305 126.988C34.0965 127.154 35.8322 127.213 40.578 127.213H47.0008V130.595C47.0008 133.64 47.0336 133.991 47.3285 134.112C47.5086 134.186 48.9834 134.247 50.6054 134.247H53.5547L53.5768 140.25C53.589 143.551 53.6541 146.505 53.7213 146.815L53.8438 147.378L57.023 147.317L60.2022 147.256V153.911V160.567L56.9678 160.462L53.7335 160.357L53.7845 163.903L53.8356 167.449L60.6483 167.498L67.4609 167.547L67.3991 170.405C67.3652 171.977 67.3542 174.973 67.3744 177.062L67.4115 180.861H70.5995H73.7875L73.736 183.87L73.6845 186.88L63.76 186.918L53.8356 186.957L53.782 190.052C53.7526 191.754 53.7755 193.337 53.8326 193.569L53.9363 193.991H67.0295C77.3002 193.991 80.1547 193.941 80.271 193.757C80.3524 193.628 80.4341 192.102 80.4523 190.367L80.4854 187.212L93.8441 187.178L107.203 187.145L107.297 183.956L107.39 180.767L110.527 180.835C112.746 180.884 113.666 180.843 113.671 180.695C113.675 180.58 113.681 179.072 113.686 177.343L113.693 174.202L110.916 174.148C109.389 174.118 107.946 174.142 107.71 174.2C107.28 174.307 107.28 174.307 107.335 177.46L107.39 180.612L100.696 180.596L94.0027 180.579L94.002 177.39L94.0014 174.202L100.584 174.26C105.856 174.306 107.198 174.269 107.323 174.072C107.408 173.937 107.479 172.349 107.481 170.544L107.484 167.261L110.667 167.324L113.851 167.387V163.983V160.58L116.987 160.638L120.124 160.696L120.175 157.272L120.226 153.849L117.085 153.849L113.944 153.848L113.892 144.235C113.863 138.948 113.909 134.519 113.994 134.392C114.11 134.219 115.725 134.159 120.575 134.148C124.11 134.141 127.024 134.16 127.05 134.191C127.077 134.222 127.16 135.673 127.234 137.415L127.368 140.583L123.84 140.51L120.311 140.437L120.26 143.767C120.22 146.357 120.261 147.1 120.447 147.114C120.633 147.127 126.92 147.114 127.337 147.1C127.391 147.098 127.403 145.661 127.363 143.907L127.29 140.719H130.401C132.767 140.719 133.511 140.775 133.508 140.953C133.506 141.082 133.527 144.061 133.555 147.572L133.606 153.957L130.547 153.95L127.489 153.943L127.512 157.209C127.525 159.006 127.582 160.55 127.638 160.641C127.694 160.732 129.017 160.794 130.579 160.779L133.419 160.752L133.47 164.022L133.521 167.291L133.001 167.237C132.716 167.207 129.723 167.145 126.35 167.1L120.217 167.017V170.562V174.108H123.681H127.146V178.299C127.146 180.604 127.201 183.528 127.269 184.796L127.393 187.103L123.758 187.03L120.124 186.957L120.137 187.379C120.144 187.611 120.165 189.195 120.184 190.898L120.217 193.996L127.099 193.947L133.98 193.897L134.03 187.379L134.079 180.861H137.164H140.249L140.298 187.379L140.347 193.897L143.787 193.949C146.075 193.983 147.309 193.931 147.474 193.795C147.675 193.627 147.702 191.214 147.62 180.588C147.565 173.438 147.591 167.556 147.678 167.518C147.766 167.48 149.185 167.491 150.833 167.542L153.829 167.636L153.923 174.202L154.017 180.767H157.06H160.102L160.104 182.924C160.105 184.11 160.16 185.535 160.226 186.09L160.347 187.099L157.242 186.962L154.137 186.824L154.077 187.453C154.044 187.799 154.042 189.412 154.072 191.037L154.128 193.991H163.833C171.497 193.991 173.581 193.941 173.738 193.751C173.867 193.595 173.918 192.353 173.882 190.234L173.828 186.957L170.757 186.906L167.686 186.854L167.711 183.717L167.737 180.579L170.848 180.649L173.959 180.719V177.53C173.959 175.204 173.896 174.291 173.725 174.154C173.589 174.045 172.271 173.977 170.569 173.99L167.648 174.014L167.614 167.343L167.581 160.671L170.77 160.754L173.959 160.838V154.066V147.294L177.002 147.409C178.676 147.472 180.063 147.537 180.085 147.553C180.107 147.57 180.15 151.988 180.179 157.371L180.232 167.159L177.056 167.21L173.88 167.261L173.936 170.638C173.967 172.495 174.034 174.056 174.085 174.108C174.136 174.159 177.132 174.229 180.743 174.262C185.468 174.305 187.346 174.262 187.44 174.11C187.511 173.994 187.531 170.908 187.484 167.253L187.398 160.606L190.574 160.726C193.592 160.84 193.754 160.829 193.84 160.49C193.89 160.294 193.924 155.744 193.916 150.379L193.902 140.625H183.884H173.865L173.925 143.861L173.985 147.096L170.742 147.096L167.499 147.095L167.464 140.624L167.428 134.153H170.6C173.496 134.153 173.772 134.125 173.773 133.825C173.773 133.645 173.788 132.062 173.806 130.308L173.839 127.119L172.354 127.058C171.538 127.025 170.09 127.054 169.137 127.123L167.405 127.248V130.607V133.966H163.988L160.57 133.966L160.602 130.569L160.634 127.173L163.973 127.146L167.312 127.119L167.405 123.836C167.476 121.371 167.557 120.558 167.733 120.572C167.862 120.583 170.769 120.604 174.193 120.619L180.419 120.648L180.369 126.978C180.341 130.46 180.359 133.478 180.408 133.684C180.494 134.043 180.652 134.059 184.016 134.059H187.535L187.471 130.545L187.406 127.031L190.654 127.075L193.902 127.119V117.003V106.887L190.765 106.935L187.629 106.983V103.679V100.375L190.765 100.429L193.902 100.483L193.95 90.4042L193.998 80.3258L193.576 80.2222C193.343 80.1652 191.943 80.1423 190.464 80.1712L187.775 80.2241L187.749 76.9651L187.722 73.7061L190.812 73.7762L193.902 73.8464L193.951 66.9528L194 60.0593H190.819H187.637L187.586 56.8586L187.535 53.6581L184.037 53.5836C181.934 53.539 180.515 53.5801 180.479 53.6868ZM167.55 73.5729L167.602 80.3336L170.734 80.3079L173.865 80.2822L174.004 83.6296C174.081 85.4707 174.123 93.0123 174.098 100.389L174.053 113.801L177.247 113.835L180.442 113.869L180.431 103.706L180.419 93.5422L183.884 93.6088L187.348 93.6754V90.3631V87.0509L184.016 87.0844C182.184 87.1028 180.635 87.0677 180.574 87.0064C180.391 86.8235 180.375 86.3039 180.35 79.8958L180.326 73.7526H177.142H173.959V70.2824V66.8121H170.729L167.499 66.812L167.55 73.5729ZM93.8664 73.2788C90.7733 73.7595 86.4442 75.5023 83.7532 77.3502C82.0814 78.4982 79.2565 81.2426 78.0331 82.9074C76.7036 84.7164 74.9582 88.4022 74.4397 90.4948C73.0567 96.0787 73.3879 100.916 75.5046 106.048C76.5089 108.483 76.5375 109.487 75.6688 111.808C74.2159 115.69 73.2396 120.114 73.6787 120.826C73.936 121.243 75.3353 120.93 79.583 119.505C83.4197 118.218 83.6927 118.154 85.3879 118.144C86.9666 118.133 87.388 118.209 89.133 118.815C92.7429 120.071 93.8666 120.3 96.904 120.405C98.9852 120.477 100.15 120.425 101.401 120.207C107.146 119.204 112.534 115.797 116.32 110.774C117.304 109.469 119.289 105.529 119.907 103.653C121.409 99.0997 121.279 93.2164 119.576 88.6852C117.519 83.21 113.569 78.7163 108.233 75.7788C107.283 75.2559 104.773 74.2619 103.077 73.737C100.663 72.9899 96.9218 72.8038 93.8664 73.2788ZM67.302 73.737C67.2593 73.78 67.2242 75.1776 67.2242 76.8432C67.2242 78.9765 67.2937 79.9662 67.4594 80.1931C67.6679 80.4788 68.0433 80.5094 70.7832 80.4634L73.8718 80.4117L73.9654 77.2508C74.0169 75.5121 74.0165 74.0212 73.9646 73.9377C73.8695 73.7847 67.4467 73.5913 67.302 73.737ZM94.2825 77.9769C86.8397 79.3481 81.4308 83.98 79.0038 91.0608C78.2118 93.3716 77.964 95.8846 78.2505 98.6973C78.5584 101.717 79.0115 103.207 80.5517 106.262C81.566 108.273 81.5533 108.904 80.4339 112.116C79.9673 113.455 79.5849 114.657 79.5841 114.786C79.5825 115.144 80.004 115.072 81.5726 114.448C83.5537 113.66 85.6858 113.271 86.7299 113.507C87.8471 113.76 90.1734 114.524 91.21 114.979C93.7089 116.076 98.4831 116.405 101.585 115.694C107.626 114.31 113.099 109.557 115.348 103.742C117.133 99.1226 116.75 92.797 114.399 88.1124C111.92 83.1708 106.789 79.2973 101.211 78.1553C99.0829 77.7197 96.0958 77.6428 94.2825 77.9769ZM88.8521 86.2383C87.2131 87.0865 85.3879 89.7466 85.3879 91.2872C85.3879 93.2855 86.6041 95.6643 89.6187 99.5622C93.3945 104.445 100.138 108.26 104.163 107.792C106.591 107.51 109.169 105.285 109.169 103.472C109.169 102.648 108.489 101.952 106.591 100.833C103.576 99.0556 103.08 99.0839 101.275 101.138C100.081 102.497 99.7555 102.543 98.2901 101.561C96.1073 100.097 92.2062 96.3537 91.998 95.5231C91.9139 95.1877 92.0588 94.7332 92.508 93.9232C93.6773 91.8148 93.302 89.4577 91.4403 87.2144C90.3777 85.9338 89.8354 85.7294 88.8521 86.2383ZM60.2803 86.9608C60.2374 87.0036 60.2269 88.6157 60.2571 90.543L60.3121 94.0474L63.6541 93.9823L66.9962 93.9174L67.1085 94.8553C67.1703 95.3711 67.2218 96.7746 67.2226 97.9744C67.2246 100.582 67.2877 100.682 68.8058 100.492C69.5271 100.402 69.8565 100.271 69.9235 100.048C69.9758 99.8746 70.1525 98.4662 70.3166 96.9187C70.5971 94.2695 70.9725 91.8225 71.597 88.5714C71.7457 87.7976 71.8288 87.1013 71.7818 87.0238C71.6947 86.8805 60.4228 86.8188 60.2803 86.9608ZM134.015 87.1927C133.944 87.2632 133.887 88.7438 133.887 90.483V93.6454L133.372 93.8461C133.061 93.9675 131.802 94.0213 130.191 93.9823C128.724 93.9467 127.523 93.9806 127.522 94.0581C127.521 94.1356 127.52 95.5916 127.52 97.2938V100.389H130.704H133.888L133.765 97.1275L133.642 93.866L134.268 93.7283C134.612 93.6527 136.078 93.622 137.527 93.6602C138.975 93.6985 140.181 93.6666 140.207 93.5891C140.232 93.5117 140.253 92.0322 140.253 90.3011V87.1537L137.198 87.1092C135.518 87.0846 134.085 87.1223 134.015 87.1927ZM13.5514 93.914C13.4845 94.0883 13.4896 95.6144 13.5624 97.3055L13.695 100.38L10.2649 100.431L6.83478 100.483L6.78347 103.714L6.73235 106.946L3.45128 106.997L0.170213 107.048L0.132015 110.518L0.0936271 113.988L3.37057 114.04L6.64752 114.091L6.70726 117.276C6.76287 120.246 6.74396 120.461 6.42638 120.475C6.23893 120.484 4.73978 120.505 3.09456 120.522L0.103552 120.554L0.0984959 123.787C0.0947508 126.31 0.148493 127.041 0.34305 127.116C0.814368 127.299 6.20186 127.214 6.56625 127.019C6.90181 126.839 6.9284 126.598 6.9284 123.736V120.648H10.2054H13.4823V123.832V127.017L10.1585 127.068L6.83478 127.119L6.80014 130.581L6.76549 134.043L3.47637 133.99L0.187254 133.936V137.238V140.54L3.51102 140.488L6.83478 140.437L6.8859 137.342L6.93702 134.247L16.8641 134.283L26.7912 134.319L26.8873 137.372C26.9401 139.051 27.0285 140.47 27.0835 140.525C27.1386 140.58 28.6501 140.625 30.4423 140.625C32.9831 140.625 33.7222 140.57 33.7969 140.375C33.8497 140.238 33.893 137.178 33.893 133.575V127.025H27.1034H20.3137L20.3665 123.696L20.4193 120.366H23.6071H26.7948L26.7908 110.331L26.7871 100.295H23.5051H20.2231L20.2233 97.0594L20.2234 93.8236H17.2427C15.6033 93.8236 14.1294 93.7726 13.9673 93.7103C13.7875 93.6413 13.6254 93.7206 13.5514 93.914ZM0.148867 97.0072C0.118532 98.7123 0.119655 100.171 0.151488 100.248C0.183321 100.326 1.72311 100.389 3.57337 100.389H6.9372L6.88609 97.1984L6.83478 94.0076L3.51944 93.9574L0.203919 93.9069L0.148867 97.0072ZM40.2596 117.224V120.46H43.7238H47.188V123.743V127.025H53.7419H60.2958V130.507V133.988L66.9902 133.905C70.6722 133.86 73.7057 133.77 73.7313 133.706C73.757 133.643 73.7781 132.177 73.7781 130.449V127.307L70.5534 127.245C68.7798 127.211 67.263 127.143 67.1829 127.093C67.1025 127.044 67.0368 126.058 67.0366 124.904C67.0362 123.749 66.9808 120.842 66.913 118.443L66.79 114.082H60.2659H53.7419V117.393V120.705L50.5313 120.596C48.1689 120.516 47.2791 120.421 47.1635 120.239C47.0772 120.103 47.0051 118.64 47.0032 116.99L46.9999 113.988H43.6297H40.2596V117.224ZM183.823 114.035L180.486 114.091L180.547 117.229L180.607 120.366L183.93 120.417L187.254 120.469V117.182C187.254 115.374 187.233 113.914 187.207 113.937C187.182 113.96 185.659 114.004 183.823 114.035ZM147.369 130.528V133.778H150.536C153.451 133.778 153.697 133.752 153.64 133.45C153.605 133.269 153.57 131.813 153.562 130.214L153.547 127.307L150.458 127.292L147.369 127.278V130.528ZM40.3244 134.067C40.2834 134.174 40.2733 135.651 40.3016 137.349L40.3533 140.437L43.5366 140.531C45.2874 140.583 46.8253 140.551 46.954 140.461C47.1251 140.342 47.188 139.471 47.188 137.229C47.188 134.199 47.1828 134.159 46.7667 134.068C45.8778 133.873 40.3988 133.872 40.3244 134.067ZM60.2958 143.924V147.088L63.8069 147.139L67.3179 147.19L67.369 150.52L67.4201 153.849H80.5236H93.6271V150.566V147.284H80.6195C67.951 147.284 67.6068 147.274 67.4181 146.921C67.3089 146.716 67.2239 145.305 67.2231 143.685L67.2222 140.812L63.7589 140.786L60.2958 140.759V143.924ZM140.628 150.52V160.321H150.368H160.108L160.099 150.52L160.09 140.719H150.359H140.628V150.52ZM0 170.432V193.768L1.92329 193.899C5.2169 194.124 46.7635 193.929 47.0045 193.687C47.1583 193.533 47.1779 187.309 47.0783 170.287L46.9426 147.096H23.4712H0V170.432ZM147.455 150.515L147.542 153.943H150.686H153.829V150.566V147.19L150.599 147.139L147.368 147.087L147.455 150.515ZM7.11566 170.557V186.796L23.594 186.783L40.0724 186.769L40.0722 180.204C40.072 176.593 40.0164 169.292 39.9484 163.978L39.825 154.318H23.4702H7.11566V170.557ZM100.33 157.25C100.295 159.152 100.344 160.297 100.462 160.334C100.565 160.366 102.149 160.42 103.982 160.454C107.246 160.514 107.314 160.508 107.225 160.137C107.175 159.928 107.11 158.513 107.08 156.991L107.025 154.224H103.705H100.386L100.33 157.25ZM13.6984 170.401C13.7364 175.793 13.8347 180.31 13.9169 180.439C14.0332 180.621 16.1853 180.672 23.6519 180.67C28.924 180.669 33.3438 180.6 33.4734 180.517C33.6589 180.399 33.6988 178.276 33.6606 170.532L33.6121 160.696L23.6206 160.647L13.6293 160.599L13.6984 170.401ZM67.5051 164.021V167.261L70.6461 167.322L73.7871 167.383L73.7358 164.133L73.6845 160.883L70.5948 160.832L67.5051 160.781V164.021ZM80.332 164.063V167.355H77.1467H73.9613L74.0101 173.967L74.059 180.579L77.1487 180.568L80.2384 180.557V177.286V174.014H83.609H86.9796L87.0732 170.554L87.1668 167.095L90.0481 167.147C91.6328 167.175 93.0462 167.244 93.1891 167.299C93.4056 167.382 93.4404 166.863 93.3975 164.186L93.3462 160.974L86.8391 160.873L80.332 160.771V164.063ZM53.7845 177.245L53.8356 180.579H57.0189H60.2022V177.297V174.014L56.9678 173.963L53.7333 173.911L53.7845 177.245ZM190.437 174.099L187.535 174.202L187.484 177.462L187.432 180.723L183.97 180.587L180.508 180.45L180.557 187.174L180.607 193.897L187.055 193.947C190.602 193.974 193.573 193.927 193.657 193.842C193.742 193.757 193.824 192.174 193.84 190.322L193.87 186.957H190.781H187.692L187.707 183.8L187.722 180.643L190.63 180.774C193.097 180.885 193.574 180.862 193.771 180.623C193.942 180.418 193.991 179.492 193.953 177.18C193.91 174.524 193.857 174.017 193.621 174.007C193.466 174.001 192.034 174.042 190.437 174.099ZM108.888 187.035L107.39 187.145L107.339 190.572L107.288 194L110.522 193.949L113.757 193.897V190.427V186.957L112.072 186.941C111.145 186.933 109.712 186.975 108.888 187.035Z" fill="url(#paint0_linear_645_17346)"></path><defs><linearGradient id="paint0_linear_645_17346" x1="97" y1="0" x2="97" y2="194" gradientUnits="userSpaceOnUse"><stop stop-color="#35DF55"></stop><stop offset="1" stop-color="#04B22A"></stop></linearGradient></defs></svg>