<svg xmlns="http://www.w3.org/2000/svg" width="188" height="210" viewBox="0 0 188 210" fill="none"><g opacity="0.6" filter="url(#filter0_f_684_182)"><path d="M121.097 44.4374C119.751 65.7091 102.273 69.9423 93.7021 69.3999C105.569 70.1509 119.004 77.5123 117.773 96.9682C119.004 77.5123 136.556 72.1118 143.808 72.5707C136.556 72.1118 119.743 65.8388 121.097 44.4374Z" fill="#F1B12D"></path><path d="M121.097 44.4374C119.751 65.7091 102.273 69.9423 93.7021 69.3999C105.569 70.1509 119.004 77.5123 117.773 96.9682C119.004 77.5123 136.556 72.1118 143.808 72.5707C136.556 72.1118 119.743 65.8388 121.097 44.4374Z" fill="url(#paint0_linear_684_182)"></path></g><g opacity="0.6" filter="url(#filter1_f_684_182)"><path d="M87.5075 81.259C85.3537 115.294 57.7204 122.088 44.173 121.231C62.9309 122.418 84.1586 134.179 82.1886 165.308C84.1586 134.179 111.91 125.517 123.373 126.242C111.91 125.517 85.3405 115.501 87.5075 81.259Z" fill="#F1B12D"></path><path d="M87.5075 81.259C85.3537 115.294 57.7204 122.088 44.173 121.231C62.9309 122.418 84.1586 134.179 82.1886 165.308C84.1586 134.179 111.91 125.517 123.373 126.242C111.91 125.517 85.3405 115.501 87.5075 81.259Z" fill="url(#paint1_linear_684_182)"></path></g><path d="M121.097 44.4374C119.751 65.7091 102.273 69.9423 93.7021 69.3999C105.569 70.1509 119.004 77.5123 117.773 96.9682C119.004 77.5123 136.556 72.1118 143.808 72.5707C136.556 72.1118 119.743 65.8388 121.097 44.4374Z" fill="#F1B12D"></path><path d="M121.097 44.4374C119.751 65.7091 102.273 69.9423 93.7021 69.3999C105.569 70.1509 119.004 77.5123 117.773 96.9682C119.004 77.5123 136.556 72.1118 143.808 72.5707C136.556 72.1118 119.743 65.8388 121.097 44.4374Z" fill="url(#paint2_linear_684_182)"></path><path d="M87.5075 81.259C85.3537 115.294 57.7204 122.088 44.173 121.231C62.9309 122.418 84.1586 134.179 82.1886 165.308C84.1586 134.179 111.91 125.517 123.373 126.242C111.91 125.517 85.3405 115.501 87.5075 81.259Z" fill="#F1B12D"></path><path d="M87.5075 81.259C85.3537 115.294 57.7204 122.088 44.173 121.231C62.9309 122.418 84.1586 134.179 82.1886 165.308C84.1586 134.179 111.91 125.517 123.373 126.242C111.91 125.517 85.3405 115.501 87.5075 81.259Z" fill="url(#paint3_linear_684_182)"></path><defs><filter id="filter0_f_684_182" x="49.7021" y="0.437386" width="138.106" height="140.531" filterUnits="userSpaceOnUse" color-interpolation-filters="sRGB"><feGaussianBlur stdDeviation="22"></feGaussianBlur></filter><filter id="filter1_f_684_182" x="0.172852" y="37.259" width="167.2" height="172.049" filterUnits="userSpaceOnUse" color-interpolation-filters="sRGB"><feGaussianBlur stdDeviation="22"></feGaussianBlur></filter><linearGradient id="paint0_linear_684_182" x1="95.3848" y1="42.8102" x2="139.89" y2="100.275" gradientUnits="userSpaceOnUse"><stop stop-color="#FFCF6D"></stop><stop offset="1" stop-color="#E79C00"></stop></linearGradient><linearGradient id="paint1_linear_684_182" x1="46.8652" y1="78.687" x2="118.245" y2="169.71" gradientUnits="userSpaceOnUse"><stop stop-color="#FFCF6D"></stop><stop offset="1" stop-color="#E79C00"></stop></linearGradient><linearGradient id="paint2_linear_684_182" x1="95.3848" y1="42.8102" x2="139.89" y2="100.275" gradientUnits="userSpaceOnUse"><stop stop-color="#FFCF6D"></stop><stop offset="1" stop-color="#E79C00"></stop></linearGradient><linearGradient id="paint3_linear_684_182" x1="46.8652" y1="78.687" x2="118.245" y2="169.71" gradientUnits="userSpaceOnUse"><stop stop-color="#FFCF6D"></stop><stop offset="1" stop-color="#E79C00"></stop></linearGradient></defs></svg>