<svg xmlns="http://www.w3.org/2000/svg" width="54" height="54" viewBox="0 0 54 54" fill="none"><path fill-rule="evenodd" clip-rule="evenodd" d="M0.558594 7.02412V13.3619L0.676582 13.3915C0.741519 13.4078 3.6166 13.414 7.06571 13.4053L13.3368 13.3893L13.3528 9.19917C13.3615 6.89458 13.3532 4.03974 13.3341 2.8551L13.2995 0.701149L6.92905 0.693791L0.558594 0.686381V7.02412ZM18.9098 0.719749C18.8576 0.773557 18.8626 2.38626 18.9151 2.4693C18.9474 2.52035 19.1477 2.53215 19.7816 2.5204L20.6061 2.50512L20.606 4.30638L20.6059 6.10765H19.7387H18.8715V5.2134V4.31916H17.9278H16.9841V3.39936V2.47957H16.0903H15.1964L15.2103 3.41214L15.2242 4.34471L16.0787 4.35871L16.9331 4.37271V6.15997V7.94723H16.0648H15.1965L15.2104 8.90535L15.2242 9.86347L16.0726 9.84625L16.9209 9.82903L16.9413 10.6756C16.9532 11.1669 16.9841 11.5446 17.0149 11.5755C17.049 11.6096 17.3971 11.6238 17.9826 11.6149L18.897 11.6009L18.9104 9.79832L18.9239 7.99583L20.6193 7.99838C21.5518 7.99976 22.3435 8.00032 22.3785 7.99961C22.4271 7.99864 22.4423 7.77835 22.4423 7.07215V6.14597L22.6017 6.17791C22.6894 6.19549 23.1026 6.20984 23.5199 6.20984H24.2787V7.10409V7.99833L24.9801 8.00666C25.3659 8.01126 25.7673 8.01703 25.8722 8.01943L26.0629 8.02388L26.0844 8.89809L26.106 9.77236L24.2869 9.76679L22.4678 9.76127V11.5625V13.3638L21.6516 13.3646C21.2027 13.365 20.8014 13.3869 20.7599 13.4132C20.6949 13.4543 20.6867 13.7113 20.7013 15.2393C20.7133 16.5056 20.7351 17.0284 20.7768 17.0553C20.8091 17.0762 21.6352 17.0877 22.6127 17.0809L24.3899 17.0685L24.3832 16.187L24.3765 15.3056H25.2376H26.0988L26.1323 16.4936C26.1508 17.1471 26.1659 17.9404 26.166 18.2566L26.1661 18.8315L23.5008 18.8322C22.0349 18.8327 20.8049 18.8524 20.7676 18.8761C20.7149 18.9096 20.7009 19.1187 20.7054 19.807C20.7086 20.2953 20.7277 20.7102 20.7478 20.729C20.782 20.7609 22.1656 20.8758 22.6208 20.8846C22.7622 20.8873 22.9737 20.8183 23.3095 20.6598C23.7583 20.4479 24.5197 20.1469 25.6193 19.7463C25.8656 19.6566 26.0834 19.5578 26.1034 19.5267C26.1232 19.4956 26.1513 19.3437 26.1655 19.1892L26.1916 18.9081L28.0025 18.9053L29.8134 18.9026L29.8268 17.1041L29.8402 15.3056H30.7067H31.5733V13.466V11.6264H32.4393H33.3053L33.3192 12.5334L33.3331 13.4404L34.2641 13.4362L35.195 13.4319V15.1566C35.195 16.1052 35.2103 16.9211 35.2289 16.9697C35.2604 17.0521 35.1998 17.0563 34.337 17.0315C33.6836 17.0128 33.399 17.0218 33.3695 17.0623C33.3465 17.0938 33.337 17.5168 33.3483 18.0022L33.369 18.8848L34.3203 18.8709L35.2716 18.857L35.2535 17.9755C35.239 17.261 35.2486 17.0935 35.3046 17.0908C35.3425 17.089 35.7581 17.0904 36.228 17.0938L37.0824 17.1001L37.0824 16.1901L37.0823 15.28L37.9241 15.2972L38.7658 15.3144V11.6308V7.94723H37.8731H36.9804V8.83611V9.72494L35.1823 9.74625C34.1933 9.7579 33.3727 9.7626 33.3586 9.75657C33.3446 9.75059 33.3398 9.34675 33.348 8.85921L33.3629 7.97278L35.1079 7.98617C36.1774 7.9944 36.8825 7.98034 36.9294 7.94984C36.9908 7.90993 37.011 7.72602 37.0314 7.0208L37.0569 6.14147L37.9169 6.13733L38.7768 6.13319L38.7841 4.31349L38.7913 2.49372L37.9241 2.46623C37.4472 2.45111 37.0397 2.44927 37.0187 2.46215C36.9976 2.47507 36.9804 3.29522 36.9804 4.28472V6.08388L35.1441 6.08296L33.3079 6.0821L33.3077 5.22618L33.3076 4.37026H34.3023H35.2971V2.56169C35.2971 1.16079 35.2827 0.748059 35.2333 0.730787C35.1982 0.718472 33.9576 0.702478 32.4764 0.695171L29.7832 0.681885L29.7983 1.58834L29.8134 2.4948L28.9462 2.46179C28.4692 2.44365 27.6377 2.42873 27.0983 2.42862L26.1175 2.42847L26.1036 1.58666L26.0896 0.74484L25.2241 0.730736L24.3585 0.716633L24.3743 1.57255L24.3901 2.42847H22.5235H20.6569V1.58533V0.742182H20.1033C19.7988 0.742182 19.4143 0.728283 19.2489 0.711267C19.0834 0.694251 18.9309 0.698083 18.9098 0.719749ZM40.7425 5.68607C40.7354 8.43334 40.7298 11.2904 40.7299 12.0352L40.7301 13.3893H47.0553H53.3804V7.07854V0.767732L52.7938 0.736153C52.4712 0.718728 49.6305 0.701507 46.4812 0.697828L40.7552 0.691083L40.7425 5.68607ZM2.48829 2.53067C2.48349 2.54472 2.47773 4.58666 2.47553 7.06827C2.4715 11.5564 2.47207 11.5802 2.57353 11.553C2.62964 11.5379 4.65891 11.5253 7.08305 11.5249L11.4905 11.5242L11.4573 7.04021L11.4242 2.55622L10.5951 2.5437C8.80997 2.51667 2.4965 2.50655 2.48829 2.53067ZM24.3702 3.39819L24.3552 4.31926L25.2403 4.31921L26.1255 4.31916L26.1069 3.41214L26.0884 2.50512L25.2368 2.49112L24.3852 2.47712L24.3702 3.39819ZM42.5406 7.00981V11.5539L47.0551 11.5543L51.5696 11.5546V7.04261V2.53067H47.2918C44.9389 2.53067 42.9074 2.51606 42.7773 2.49817L42.5406 2.46567V7.00981ZM31.6243 3.42491V4.31916L32.4532 4.31921H33.2821V3.42502V2.53082L32.4532 2.53077L31.6243 2.53067V3.42491ZM4.3279 4.40858C4.30917 4.53802 4.34626 9.76628 4.36605 9.79842C4.37947 9.82014 5.57991 9.83792 7.03377 9.83792C9.19266 9.83792 9.68757 9.82525 9.73429 9.76883C9.79908 9.69065 9.78592 4.53618 9.72062 4.4304C9.69292 4.38554 9.00504 4.37026 7.00847 4.37026C5.53716 4.37026 4.33091 4.38753 4.3279 4.40858ZM27.9516 5.24626L27.9517 6.13319L28.857 6.13156L29.7624 6.12987V5.27595V4.42197L28.9376 4.42166C28.484 4.42151 28.0766 4.40741 28.0322 4.39034C27.9605 4.3628 27.9515 4.45846 27.9516 5.24626ZM44.2496 7.05984C44.2289 8.52624 44.2275 9.7512 44.2465 9.78196C44.2708 9.82136 45.0801 9.83792 46.982 9.83792H49.6831L49.6699 7.1186L49.6566 4.39923L46.972 4.39647L44.2873 4.39371L44.2496 7.05984ZM29.7763 7.06576L29.7624 7.97278L28.8239 7.97631L27.8855 7.97978L27.8802 8.8961L27.875 9.81237H27.0333H26.1916V10.67C26.1916 11.3761 26.1781 11.5364 26.1151 11.5775C26.0725 11.6051 25.6762 11.6249 25.2224 11.622L24.4062 11.6166L24.3923 12.503L24.3783 13.3893L25.0554 13.3755C25.4278 13.368 25.8213 13.3565 25.9298 13.35L26.1271 13.3382L26.1339 12.4696L26.1406 11.6009L27.0205 11.5869L27.9005 11.5729V13.3881V15.2034H28.5306C28.8772 15.2034 29.3019 15.2181 29.4743 15.2362L29.7879 15.269V13.4221V11.5753H30.6613H31.5347L31.5157 8.86713L31.4967 6.1589L30.6435 6.15885L29.7902 6.15874L29.7763 7.06576ZM15.1884 12.4823C15.2 12.9812 15.2242 13.4008 15.2424 13.4149C15.2605 13.4289 15.6598 13.4336 16.1297 13.4253L16.9841 13.4101L16.993 12.7482C16.9979 12.3842 17.006 12.0222 17.0109 11.9438C17.0158 11.8654 17.0011 11.7504 16.9781 11.6883C16.9373 11.5777 16.9179 11.5753 16.0519 11.5753H15.1674L15.1884 12.4823ZM18.9275 11.6459C18.8873 11.6945 18.8734 11.9862 18.883 12.5785L18.897 13.4404L19.7642 13.4224C20.2412 13.4124 20.6486 13.3938 20.6697 13.381C20.6907 13.3682 20.7079 12.9567 20.7079 12.4665V11.5753H19.847C19.1765 11.5753 18.9731 11.5909 18.9275 11.6459ZM35.2973 12.5334L35.2975 13.3893L36.1134 13.3917L36.9294 13.3941V12.5358V11.6775H36.1132H35.2971L35.2973 12.5334ZM22.544 13.9838C22.5438 14.3033 22.529 14.7199 22.5111 14.9096L22.4786 15.2545H23.4296H24.3807V14.3602V13.466L23.5773 13.4653C23.1354 13.4649 22.7222 13.4507 22.6591 13.4338C22.545 13.4031 22.5443 13.4065 22.544 13.9838ZM1.45129 15.3037C0.59272 15.3309 0.58415 15.3323 0.587721 15.4461C0.589761 15.5094 0.595475 15.906 0.600474 16.3276L0.609605 17.0941H1.50357H2.39754L2.44727 16.963C2.51364 16.7881 2.51114 15.4787 2.44421 15.3533C2.41514 15.2989 2.37499 15.2594 2.35494 15.2654C2.3349 15.2714 1.92824 15.2886 1.45129 15.3037ZM4.29622 15.3244C4.28117 15.3489 4.27331 15.7455 4.27872 16.2059L4.28857 17.043H3.37277C2.68381 17.043 2.45243 17.0588 2.4387 17.1068C2.42871 17.142 2.42707 17.9818 2.43513 18.9731L2.44977 20.7755L3.37817 20.7616L4.30662 20.7477L4.30724 18.9337L4.3079 17.1196L5.14958 17.0941L5.99126 17.0685L6.00524 16.187C6.01289 15.7022 6.00141 15.3049 5.97973 15.304C5.35837 15.2788 4.31657 15.2914 4.29622 15.3244ZM7.9158 16.1733L7.92968 17.0685L8.80962 17.0825L9.68956 17.0965V17.9384C9.68956 18.4015 9.68956 18.7948 9.6895 18.8124C9.6895 18.8301 8.8717 18.8473 7.87219 18.8508L6.05487 18.857L6.06436 19.7993C6.06956 20.3176 6.08742 20.7637 6.104 20.7906C6.12241 20.8205 6.45776 20.828 6.96583 20.8099L7.79746 20.7804L7.81256 21.6327C7.82087 22.1015 7.81322 22.5041 7.79562 22.5274C7.77797 22.5507 6.56136 22.5622 5.09204 22.5529L2.42049 22.5362L2.43809 23.456C2.44784 23.9619 2.46197 24.3823 2.46962 24.3903C2.47727 24.3983 3.68832 24.4037 5.16085 24.4022L7.83816 24.3997L7.88392 25.3303L7.92968 26.2609L8.8339 26.2501L9.73817 26.2393L9.7521 27.1216L9.76607 28.0038H12.4952H15.2242L15.2377 26.177L15.251 24.3502H14.3639C13.636 24.3502 13.4654 24.364 13.4131 24.4272C13.3656 24.4845 13.355 24.7227 13.3715 25.3597L13.3938 26.2154H11.5928H9.79183L9.79168 25.2956L9.79153 24.3758H11.5897H13.3879L13.4018 23.4358L13.4157 22.4959L12.4963 22.5223L11.577 22.5487V21.6865V20.8243H13.3623H15.1477V21.2508C15.1477 21.4854 15.1626 21.8878 15.1809 22.1451L15.214 22.6128H16.0418C16.6438 22.6128 16.883 22.5954 16.9187 22.549C16.9488 22.5099 16.962 21.7801 16.9529 20.671L16.9378 18.857L14.2482 18.8472L11.5585 18.8375L11.5713 18.0296C11.5783 17.5853 11.5685 17.1816 11.5496 17.1324C11.5186 17.0521 11.4262 17.043 10.6406 17.043H9.76607L9.74919 16.1872C9.7399 15.7165 9.72843 15.328 9.72368 15.3239C9.71894 15.3198 9.30713 15.3079 8.80849 15.2973L7.90193 15.2781L7.9158 16.1733ZM11.526 16.1548C11.526 16.64 11.5436 17.0479 11.5652 17.0612C11.5867 17.0745 11.9942 17.0918 12.4706 17.0996L13.3368 17.1137L13.3508 16.2341C13.3615 15.5568 13.3498 15.3496 13.2998 15.3335C13.264 15.3219 12.8503 15.3035 12.3804 15.2926L11.526 15.2727V16.1548ZM17.0018 15.3331C16.9906 15.3623 16.9878 15.7647 16.9956 16.2273L17.0096 17.0685L17.9394 17.0824L18.8692 17.0964L18.8831 18.0022L18.897 18.9081L19.7883 18.8925C20.2785 18.8839 20.6835 18.8724 20.6883 18.8669C20.693 18.8615 20.7051 18.4546 20.7152 17.9628L20.7334 17.0685L19.8152 17.0547L18.897 17.0409L18.9132 16.1985C18.926 15.5361 18.915 15.3512 18.8622 15.333C18.7117 15.2812 17.0216 15.2813 17.0018 15.3331ZM44.3052 15.2923C44.2886 15.309 44.275 15.7212 44.275 16.2084V17.0941H45.2187C46.1623 17.0941 46.1624 17.0941 46.166 16.9791C46.1732 16.7472 46.1552 15.3324 46.1449 15.3221C46.1175 15.2947 44.3317 15.2658 44.3052 15.2923ZM49.724 15.307C49.715 15.3336 49.7144 15.7466 49.7228 16.2247L49.7378 17.0941H50.6792H51.6206V17.9953V18.8965L51.3839 18.864C51.2537 18.8461 50.4279 18.8315 49.5487 18.8315H47.9502L47.9363 17.95L47.9223 17.0685L47.1571 17.0539C46.7363 17.0458 46.3403 17.052 46.2772 17.0676C46.1638 17.0957 46.1624 17.1063 46.1624 17.9637V18.8315H44.4067C43.4411 18.8315 42.6147 18.8454 42.5703 18.8625C42.4985 18.8901 42.4896 18.7909 42.4896 17.9676V17.0417L40.615 17.0551L38.7404 17.0685L38.7581 17.9638L38.7757 18.8591L37.8758 18.8394L36.976 18.8198L36.9909 19.771L37.0059 20.7222L36.126 20.7222L35.246 20.7221V21.6345V22.5469L35.9787 22.5826C36.3817 22.6023 36.7708 22.6034 36.8435 22.5851L36.9756 22.5519L36.9907 23.4127C36.9991 23.8862 36.9988 24.2908 36.9902 24.3119C36.9815 24.333 36.5975 24.3502 36.137 24.3502H35.2995L35.2855 23.4687L35.2716 22.5873L34.3099 22.5617C33.7811 22.5477 33.323 22.5519 33.2921 22.5712C33.2192 22.6166 33.33 22.9729 33.7184 23.9418C34.2709 25.3199 34.4168 25.9371 34.58 27.5876C34.6039 27.8293 34.6468 28.0058 34.6878 28.0312C34.7252 28.0543 34.8662 28.0602 35.0009 28.0442L35.246 28.0151L35.2519 28.8527C35.2552 29.3133 35.2609 29.7246 35.2647 29.7668C35.2705 29.8316 35.4034 29.8434 36.1249 29.8434H36.9783L36.9921 30.7632L37.0059 31.683H37.8925H38.7791L38.7735 30.7632L38.7679 29.8434L37.8997 29.8294L37.0314 29.8155V28.948C37.0314 28.2898 37.0468 28.0797 37.0952 28.0772C37.1303 28.0753 37.9432 28.0696 38.9017 28.0644C39.8603 28.0592 40.6599 28.0396 40.6788 28.0207C40.6976 28.0019 40.7102 27.5905 40.7067 27.1065L40.7002 26.2264L41.5409 26.252C42.0976 26.2689 42.3998 26.2593 42.4356 26.2235C42.5195 26.1394 42.51 22.6128 42.4258 22.613C42.3908 22.6131 41.9833 22.6074 41.5204 22.6003L40.6787 22.5873V23.4815C40.6787 24.1656 40.6637 24.3745 40.615 24.3707C40.5799 24.3678 40.161 24.3621 39.684 24.3579L38.8168 24.3502V23.456C38.8168 22.7755 38.8016 22.5614 38.7531 22.5602C38.718 22.5594 38.3163 22.5583 37.8604 22.5579L37.0314 22.5571V21.6651V20.7732H40.5951H44.1587L44.1909 21.0415C44.2086 21.189 44.2233 21.603 44.2235 21.9613L44.224 22.6128H45.1932H46.1624V25.3248V28.0367L45.2314 28.0203L44.3005 28.0038V28.9174V29.831L45.2314 29.8215L46.1624 29.812V31.6546V33.4971H45.2187H44.275V32.5709V31.6447L43.3823 31.6668L42.4896 31.6889V29.8592V28.0294H41.5969H40.7042V29.8979V31.7664L41.5715 31.7503L42.4387 31.7341L42.4478 32.4878C42.4527 32.9024 42.4584 33.2933 42.4605 33.3565L42.4641 33.4715H41.5739H40.6837L40.6985 34.3785C40.7102 35.0997 40.6996 35.2855 40.6465 35.2855C40.6097 35.2855 40.1821 35.2956 39.6962 35.3077L38.8127 35.3299L38.8194 34.4263L38.8261 33.5226L38.018 33.4871C37.5736 33.4676 37.1698 33.4634 37.1207 33.4778C37.0381 33.502 37.0314 33.4373 37.0314 32.6098V31.7156L36.2025 31.6992C35.7466 31.6902 35.3506 31.6981 35.3226 31.7168C35.2902 31.7383 35.2808 32.0738 35.2971 32.6366L35.3226 33.5226H36.1488H36.975L36.965 34.3811L36.9549 35.2397L35.1293 35.2498L33.3036 35.26L33.3102 34.3913L33.3169 33.5226H32.4323H31.5478L31.5622 35.3466L31.5767 37.1705L30.6823 37.1606L29.7879 37.1507V36.2181V35.2855H28.8431H27.8982L27.9121 36.2437L27.926 37.2018L28.8314 37.2157L29.7369 37.2297L29.7373 37.8289C29.7375 38.1585 29.7525 38.5509 29.7704 38.701L29.8032 38.9738L28.8391 38.9593L27.875 38.9448L27.8783 39.849L27.8817 40.7532H26.9984H26.1151L26.115 39.8462L26.1149 38.9392H23.4047H20.6945L20.7264 38.4537C20.744 38.1867 20.7585 37.7958 20.7586 37.585L20.7589 37.2018H22.557H24.3552L24.3475 36.2806L24.3397 35.3594L25.2401 35.3608L26.1406 35.3622L26.1571 35.1067C26.1803 34.7476 26.0962 34.4993 25.9243 34.4195C25.5977 34.2679 24.8426 34.0147 24.6151 33.9806C24.4305 33.9528 24.3582 33.9612 24.3241 34.0142C24.2991 34.053 24.2935 34.3429 24.3116 34.6583C24.3384 35.1249 24.3312 35.2365 24.2733 35.2566C24.2342 35.2702 23.8071 35.2879 23.3244 35.2962L22.4466 35.3111L22.4772 34.8453C22.512 34.3159 22.4783 34.1102 22.3569 34.1102C22.311 34.1102 22.0249 34.1907 21.7212 34.2891C21.1486 34.4745 20.654 34.5226 20.3823 34.4191C20.2104 34.3536 19.8517 34.0241 19.7609 33.8484C19.6487 33.631 19.6719 33.1539 19.8194 32.6469C20.2176 31.277 20.4124 30.4059 20.3919 30.0861L20.3764 29.8434H18.6802H16.9841L16.9841 28.9102V27.9771L16.1042 28.0109C15.5606 28.0318 15.209 28.0663 15.1844 28.101C15.1624 28.1318 15.1509 28.5308 15.1588 28.9876L15.1732 29.818L13.3262 29.8179L11.4792 29.8179L11.5106 30.7632L11.542 31.7086H10.6413H9.74057V33.4613C9.74057 34.7564 9.75653 35.23 9.80178 35.2753C9.84703 35.3206 10.3198 35.3366 11.6127 35.3366H13.3623V36.258C13.3623 37.0875 13.3713 37.1831 13.4516 37.2161C13.5007 37.2364 13.9024 37.2529 14.3443 37.2529H15.1477L15.1537 38.8881C15.1571 39.7874 15.1748 40.5922 15.1931 40.6766L15.2265 40.8299L16.0926 40.8132L16.9586 40.7966V42.6097V44.4228L16.0775 44.3943L15.1964 44.3657L15.2103 45.3316L15.2242 46.2975L17.0801 46.311L18.936 46.3243L18.9192 47.103C18.9099 47.5312 18.9069 48.3472 18.9124 48.9164L18.9225 49.9511H19.791H20.6595L20.6454 50.771L20.6314 51.5908L17.9278 51.6013L15.2242 51.6119L15.2097 52.455C15.2016 52.9188 15.2079 53.3499 15.2234 53.4131L15.2517 53.5281H18.8185C21.6164 53.5281 22.394 53.5144 22.4257 53.4642C22.4479 53.4291 22.4701 53.0136 22.475 52.5409L22.4841 51.6814L26.1232 51.6722L29.7624 51.663L29.7879 50.7943L29.8134 49.9256L30.6678 49.9442C31.2724 49.9574 31.5229 49.9462 31.5242 49.9059C31.5254 49.8746 31.5272 49.4638 31.5284 48.993L31.5304 48.1371L30.7739 48.1224C30.3579 48.1144 29.9647 48.1209 29.9004 48.1368C29.7832 48.1658 29.7832 48.1658 29.7983 49.0247L29.8134 49.8835L27.9899 49.879L26.1664 49.8745L26.1662 49.0058L26.166 48.1371L27.9593 48.1529C29.3954 48.1656 29.761 48.1554 29.795 48.1018C29.8183 48.065 29.8377 47.6325 29.8381 47.1407L29.8388 46.2464L30.706 46.2635L31.5733 46.2806V45.3535V44.4264L32.4277 44.4422L33.2821 44.4579L33.2961 43.5254L33.3099 42.5928L32.4544 42.5926L31.5988 42.5925L31.5845 39.9738C31.5766 38.5335 31.5891 37.3269 31.6122 37.2925C31.6439 37.2452 32.0838 37.2289 33.4051 37.226C34.368 37.2239 35.1618 37.2291 35.1691 37.2375C35.1764 37.246 35.1989 37.6412 35.2191 38.1158L35.2557 38.9788L34.2944 38.959L33.3331 38.9392L33.3192 39.8462C33.3083 40.5519 33.3197 40.7542 33.3702 40.7579C33.421 40.7616 35.1337 40.7582 35.2473 40.7541C35.262 40.7536 35.2651 40.3623 35.2542 39.8845L35.2343 39.0158H36.0819C36.7265 39.0158 36.9292 39.0311 36.9283 39.0797C36.9276 39.1148 36.9334 39.9263 36.941 40.8828L36.9549 42.6221L36.1217 42.6202L35.2885 42.6183L35.295 43.5082C35.2985 43.9976 35.3139 44.4183 35.3291 44.4431C35.3444 44.4677 35.7049 44.4846 36.1304 44.4806L36.9039 44.4732L36.9178 45.3639L36.9317 46.2546L36.7902 46.2398C36.7125 46.2317 35.8971 46.2149 34.9782 46.2024L33.3076 46.1798V47.1457V48.1115H34.2513H35.195V49.2533C35.195 49.8812 35.2102 50.6777 35.2288 51.0233L35.2625 51.6515L34.2723 51.6317L33.2821 51.6119L33.2857 51.7269C33.2878 51.7901 33.2935 52.2215 33.2985 52.6856L33.3076 53.5294L35.1823 53.516L37.0569 53.5026L37.0704 51.7269L37.0838 49.9511H37.9241H38.7645L38.7779 51.7269L38.7913 53.5026L39.7284 53.5165C40.3516 53.5258 40.6879 53.5118 40.7327 53.4746C40.7876 53.4289 40.7949 52.7715 40.7726 49.8769C40.7576 47.929 40.7647 46.3268 40.7885 46.3164C40.8123 46.306 41.199 46.309 41.6479 46.3231L42.4641 46.3486L42.4896 48.1371L42.5151 49.9256H43.3441H44.173L44.1734 50.5132C44.1737 50.8364 44.1887 51.2245 44.2068 51.3757L44.2397 51.6505L43.3938 51.6132L42.5479 51.5757L42.5315 51.7471C42.5225 51.8414 42.5219 52.2807 42.5303 52.7233L42.5455 53.5281H45.1894C47.277 53.5281 47.8447 53.5143 47.8875 53.4626C47.9226 53.4203 47.9365 53.0818 47.9269 52.5045L47.912 51.6119L47.0754 51.5979L46.2389 51.5839L46.2458 50.7292L46.2527 49.8745L47.1002 49.8936L47.9478 49.9126V49.0439C47.9478 48.4102 47.9305 48.1614 47.884 48.1242C47.8469 48.0944 47.4878 48.0758 47.0244 48.0796L46.2285 48.086L46.2194 46.2686L46.2103 44.4513L47.079 44.4739L47.9478 44.4966V42.6518V40.8071L48.7767 40.8383C49.2326 40.8555 49.6106 40.8732 49.6166 40.8777C49.6227 40.8822 49.6341 42.0858 49.6421 43.5522L49.6566 46.2186L48.7914 46.2325L47.9262 46.2464L47.9416 47.1662C47.95 47.6721 47.9682 48.0975 47.9821 48.1115C47.9959 48.1256 48.8121 48.1445 49.7959 48.1535C51.0829 48.1653 51.5946 48.1537 51.6201 48.1123C51.6396 48.0806 51.6451 47.2399 51.6321 46.2441L51.6086 44.4335L52.4738 44.4663C53.296 44.4973 53.3402 44.4942 53.3637 44.4018C53.3772 44.3484 53.3865 43.1089 53.3844 41.6474L53.3804 38.9903H50.6514H47.9223L47.9385 39.8717L47.9548 40.7532L47.0714 40.753L46.1879 40.7528L46.1783 38.9901L46.1687 37.2273H47.0327C47.8215 37.2273 47.8968 37.2196 47.897 37.1379C47.8971 37.0887 47.9013 36.6576 47.9061 36.1798L47.9149 35.3111L47.5105 35.2946C47.2881 35.2855 46.8937 35.2934 46.6342 35.3121L46.1624 35.3462V36.2612V37.1762H45.2314L44.3005 37.1763L44.3092 36.251L44.3179 35.3257L45.2274 35.3184L46.1369 35.3111L46.1624 34.4168C46.1816 33.7452 46.2038 33.5239 46.2517 33.5277C46.2868 33.5305 47.0787 33.5362 48.0115 33.5405L49.7077 33.5482L49.6939 35.2728C49.6864 36.2213 49.6912 37.0434 49.7046 37.0996C49.7279 37.1973 49.7711 37.2018 50.6875 37.2018H51.6461L51.6285 36.2445L51.611 35.2872L52.4957 35.2991L53.3804 35.3111V32.5553V29.7995L52.526 29.8127L51.6716 29.8257V28.9257V28.0256L52.526 28.0403L53.3804 28.0549L53.3937 25.3094L53.4068 22.5639L53.2916 22.5357C53.2282 22.5201 52.8468 22.5139 52.4439 22.5218L51.7114 22.5362L51.7043 21.6484L51.6971 20.7606L52.5388 20.7797L53.3804 20.7988L53.3938 18.9209L53.4072 17.043H52.5406H51.674L51.6601 16.1711L51.6461 15.2992L50.6932 15.2789C50.1202 15.2667 49.7338 15.2779 49.724 15.307ZM46.2019 20.7243L46.2159 22.566L47.0691 22.559L47.9223 22.552L47.9601 23.4639C47.9809 23.9654 47.9924 26.0199 47.9856 28.0294L47.9733 31.683L48.8435 31.6923L49.7138 31.7015L49.7107 28.9329L49.7077 26.1643L50.6514 26.1824L51.5951 26.2005V25.2982V24.3959L50.6875 24.405C50.1884 24.4101 49.7664 24.4005 49.7497 24.3838C49.6999 24.334 49.6955 24.1924 49.6887 22.4468L49.6822 20.7732H48.815H47.9478V19.8279V18.8826H47.0678L46.1879 18.8825L46.2019 20.7243ZM26.1293 20.6442C25.2867 20.7751 24.1073 21.2499 23.3743 21.7533C22.9188 22.066 22.1493 22.8137 21.816 23.2672C21.4539 23.76 20.9784 24.764 20.8371 25.3341C20.4604 26.8552 20.5506 28.1729 21.1272 29.571C21.4008 30.2344 21.4086 30.5079 21.172 31.1401C20.7762 32.1977 20.5102 33.4028 20.6298 33.5966C20.6999 33.7103 21.0811 33.6251 22.2383 33.237C23.2834 32.8864 23.3578 32.869 23.8196 32.866C24.2497 32.8632 24.3644 32.8838 24.8398 33.0491C25.8232 33.391 26.1293 33.4536 26.9568 33.4821C27.5237 33.5016 27.841 33.4876 28.1818 33.4282C29.7469 33.155 31.2147 32.2269 32.246 30.8586C32.514 30.5031 33.0547 29.4295 33.2232 28.9186C33.6323 27.6782 33.5968 26.0755 33.133 24.8411C32.5726 23.3496 31.4966 22.1254 30.0429 21.3252C29.7841 21.1828 29.1004 20.912 28.6384 20.769C27.9808 20.5655 26.9616 20.5148 26.1293 20.6442ZM18.8927 20.769C18.8811 20.7807 18.8715 21.1614 18.8715 21.6152C18.8715 22.1963 18.8905 22.4659 18.9356 22.5278C18.9924 22.6056 19.0947 22.6139 19.841 22.6014L20.6824 22.5873L20.7079 21.7262C20.722 21.2526 20.7218 20.8464 20.7077 20.8237C20.6818 20.782 18.9321 20.7293 18.8927 20.769ZM26.2426 21.924C24.2151 22.2975 22.7416 23.5593 22.0805 25.4883C21.8647 26.1178 21.7972 26.8023 21.8753 27.5686C21.9591 28.3911 22.0826 28.7971 22.5021 29.6292C22.7785 30.1773 22.775 30.349 22.47 31.224C22.3429 31.5889 22.2388 31.9162 22.2386 31.9513C22.2381 32.0489 22.3529 32.0294 22.7802 31.8593C23.3199 31.6445 23.9008 31.5386 24.1852 31.6029C24.4895 31.6719 25.1232 31.8801 25.4056 32.004C26.0864 32.3028 27.3869 32.3924 28.232 32.1988C29.8777 31.8218 31.3686 30.527 31.9811 28.9428C32.4676 27.6844 32.363 25.9612 31.7227 24.6851C31.0472 23.3389 29.6495 22.2837 28.13 21.9726C27.5503 21.8539 26.7366 21.833 26.2426 21.924ZM24.7633 24.1745C24.3168 24.4056 23.8196 25.1303 23.8196 25.5499C23.8196 26.0943 24.1509 26.7423 24.9721 27.8042C26.0007 29.1342 27.8377 30.1737 28.9342 30.0462C29.5956 29.9693 30.298 29.3631 30.298 28.8693C30.298 28.6449 30.1127 28.4552 29.5958 28.1504C28.7743 27.6662 28.6392 27.6739 28.1476 28.2333C27.8221 28.6037 27.7336 28.6163 27.3343 28.3486C26.7397 27.9499 25.677 26.9301 25.6203 26.7039C25.5974 26.6125 25.6369 26.4887 25.7592 26.268C26.0777 25.6937 25.9755 25.0516 25.4684 24.4405C25.1789 24.0916 25.0312 24.0359 24.7633 24.1745ZM16.9799 24.3714C16.9682 24.383 16.9654 24.8222 16.9736 25.3472L16.9886 26.3019L17.899 26.2841L18.8094 26.2665L18.84 26.522C18.8568 26.6625 18.8709 27.0448 18.8711 27.3716C18.8716 28.0819 18.8888 28.1093 19.3024 28.0575C19.4989 28.0329 19.5886 27.9973 19.6069 27.9366C19.6211 27.8893 19.6692 27.5056 19.7139 27.084C19.7903 26.3624 19.8926 25.6958 20.0627 24.8101C20.1032 24.5993 20.1259 24.4096 20.1131 24.3885C20.0894 24.3495 17.0187 24.3327 16.9799 24.3714ZM37.0663 24.4345C37.0471 24.4537 37.0314 24.8571 37.0314 25.3309V26.1924L36.8912 26.247C36.8064 26.2801 36.4635 26.2948 36.0246 26.2841C35.6251 26.2744 35.298 26.2837 35.2977 26.3048C35.2973 26.3259 35.2971 26.7225 35.2971 27.1862V28.0294H36.1644H37.0317L36.9983 27.1409L36.9648 26.2525L37.1352 26.2149C37.229 26.1944 37.6285 26.186 38.023 26.1964C38.4175 26.2068 38.746 26.1981 38.7531 26.177C38.7601 26.1559 38.7658 25.7529 38.7658 25.2813V24.4239L37.9335 24.4118C37.4757 24.4051 37.0855 24.4154 37.0663 24.4345ZM4.25021 26.2655C4.232 26.313 4.23337 26.7288 4.25322 27.1894L4.28933 28.027L3.35491 28.041L2.42049 28.0549L2.40652 28.9352L2.39259 29.8155L1.49878 29.8295L0.604963 29.8434L0.594557 30.7888L0.584099 31.7341L1.47679 31.7482L2.36948 31.7622L2.38576 32.6296C2.40091 33.4389 2.39575 33.4974 2.30924 33.5012C2.25818 33.5035 1.84978 33.5093 1.4016 33.514L0.586803 33.5226L0.585426 34.4034C0.584405 35.0906 0.599045 35.2899 0.652046 35.3104C0.78044 35.36 2.24808 35.3369 2.34734 35.2838C2.43876 35.2347 2.446 35.169 2.446 34.3895V33.5482H3.33869H4.23138V34.4157V35.2832L3.32594 35.2971L2.42049 35.3111L2.41106 36.2542L2.40162 37.1974L1.50561 37.1827L0.609605 37.1681V38.0676V38.9671L1.51505 38.9531L2.42049 38.9392L2.43442 38.096L2.44835 37.2529L5.15264 37.2627L7.85694 37.2726L7.88311 38.1041C7.89749 38.5615 7.92157 38.948 7.93656 38.963C7.95156 38.978 8.36332 38.9903 8.85155 38.9903C9.54372 38.9903 9.74506 38.9753 9.76541 38.9222C9.77979 38.8848 9.79158 38.0512 9.79158 37.0698V35.2855H7.94197H6.09236L6.10675 34.3785L6.12114 33.4715H6.98955H7.8579L7.85683 30.7377L7.85581 28.0038H6.96174H6.06768L6.06773 27.1224L6.06778 26.2409H5.25579C4.80918 26.2409 4.40768 26.227 4.3635 26.21C4.31453 26.1912 4.27036 26.2129 4.25021 26.2655ZM0.599147 27.1082C0.590884 27.5727 0.59119 27.97 0.599862 27.9911C0.608533 28.0122 1.028 28.0294 1.53204 28.0294H2.4484L2.43447 27.1602L2.42049 26.291L1.51734 26.2773L0.614145 26.2636L0.599147 27.1082ZM11.526 32.6156V33.4971H12.4697H13.4134V34.3913V35.2855H15.1987H16.9841V36.234V37.1824L18.8078 37.1598C19.8108 37.1474 20.6372 37.123 20.6442 37.1056C20.6511 37.0882 20.6569 36.6888 20.6569 36.2181V35.3622L19.7785 35.3454C19.2953 35.3362 18.8821 35.3176 18.8603 35.3041C18.8384 35.2906 18.8205 35.0222 18.8204 34.7077C18.8203 34.3931 18.8052 33.6012 18.7867 32.9477L18.7532 31.7597H16.976H15.1987V32.6617V33.5637L14.3241 33.5341C13.6806 33.5123 13.4381 33.4866 13.4067 33.4369C13.3832 33.3997 13.3635 33.0014 13.363 32.5517L13.3621 31.7341H12.444H11.526V32.6156ZM50.635 31.7468L49.7259 31.7621L49.7423 32.6168L49.7587 33.4715L50.6641 33.4855L51.5696 33.4994V32.604C51.5696 32.1115 51.5638 31.7137 51.5568 31.7201C51.5498 31.7264 51.135 31.7385 50.635 31.7468ZM40.7042 36.2398V37.1251H41.5669C42.361 37.1251 42.4282 37.118 42.4125 37.0357C42.4031 36.9865 42.3936 36.5899 42.3913 36.1542L42.3871 35.3622L41.5456 35.3583L40.7042 35.3544V36.2398ZM11.5436 37.2037C11.5324 37.2329 11.5297 37.6354 11.5374 38.098L11.5515 38.9392L12.4186 38.9647C12.8956 38.9788 13.3145 38.9702 13.3496 38.9457C13.3962 38.9131 13.4134 38.6761 13.4134 38.0652C13.4134 37.2398 13.4119 37.229 13.2986 37.2041C13.0564 37.151 11.5639 37.1507 11.5436 37.2037ZM16.9841 39.8889V40.751L17.9406 40.7649L18.897 40.7788L18.911 41.6858L18.9249 42.5928H22.4945H26.0641V41.6985V40.8043H22.5206C19.0695 40.8043 18.9757 40.8017 18.9243 40.7055C18.8946 40.6497 18.8714 40.2651 18.8712 39.824L18.871 39.0414L17.9275 39.0341L16.9841 39.0269V39.8889ZM38.8678 41.6858V44.3557H41.5212H44.1745L44.172 41.6858L44.1695 39.0158H41.5187H38.8678V41.6858ZM0.558594 47.1102V53.4672L1.08253 53.503C1.97976 53.5642 13.2977 53.5112 13.3634 53.4453C13.4052 53.4034 13.4106 51.7079 13.3835 47.0707L13.3465 40.7532H6.95251H0.558594V47.1102ZM40.7277 41.6845L40.7514 42.6183H41.6077H42.4641V41.6985V40.7788L41.5841 40.7648L40.7041 40.7508L40.7277 41.6845ZM2.49701 47.1443V51.568L6.98598 51.5644L11.4749 51.5608L11.4749 49.7723C11.4748 48.7886 11.4597 46.7996 11.4412 45.3522L11.4076 42.7205H6.95226H2.49701V47.1443ZM27.8902 43.5192C27.8806 44.0374 27.8939 44.3493 27.926 44.3594C27.954 44.3681 28.3856 44.3829 28.885 44.3921C29.7742 44.4085 29.7925 44.4067 29.7684 44.3056C29.7549 44.2489 29.7371 43.8632 29.7288 43.4487L29.7138 42.695H28.8095H27.9053L27.8902 43.5192ZM4.29025 47.1019C4.30061 48.5706 4.32739 49.8011 4.34978 49.8362C4.38146 49.8859 4.96773 49.8999 7.00174 49.8993C8.43795 49.8988 9.64196 49.8801 9.67726 49.8576C9.72781 49.8255 9.73868 49.247 9.72827 47.1373L9.71506 44.4579L6.99322 44.4447L4.27143 44.4315L4.29025 47.1019ZM18.948 45.3638V46.2464L19.8037 46.263L20.6594 46.2795L20.6454 45.3943L20.6314 44.509L19.7897 44.4951L18.948 44.4811V45.3638ZM22.4423 45.3752V46.272H21.5746H20.7068L20.7201 48.0732L20.7334 49.8745L21.5751 49.8715L22.4168 49.8686V48.9773V48.086H23.335H24.2532L24.2787 47.1435L24.3042 46.2011L25.0891 46.2152C25.5208 46.2231 25.9058 46.2417 25.9448 46.2566C26.0037 46.2793 26.0132 46.1381 26.0015 45.4088L25.9876 44.5338L24.2149 44.5061L22.4423 44.4784V45.3752ZM15.2103 48.9662L15.2242 49.8745H16.0914H16.9586V48.9802V48.086L16.0775 48.072L15.1964 48.058L15.2103 48.9662ZM52.4367 48.1091L51.6461 48.1371L51.6321 49.0253L51.6181 49.9135L50.675 49.8765L49.7319 49.8394L49.7453 51.6709L49.7587 53.5026L51.5153 53.516C52.4815 53.5234 53.2908 53.5106 53.3139 53.4875C53.3369 53.4644 53.3594 53.033 53.3638 52.5287L53.3717 51.6119H52.5302H51.6887L51.6929 50.7519L51.6971 49.8919L52.4893 49.9275C53.1614 49.9578 53.2911 49.9515 53.3449 49.8865C53.3914 49.8305 53.4047 49.5784 53.3945 48.9486C53.3827 48.225 53.3682 48.0868 53.3039 48.0842C53.2618 48.0825 52.8716 48.0937 52.4367 48.1091ZM30.2215 51.6331L29.8134 51.663L29.7995 52.5968L29.7856 53.5305L30.6666 53.5166L31.5478 53.5026V52.5572V51.6119L31.0887 51.6076C30.8362 51.6052 30.4459 51.6167 30.2215 51.6331Z" fill="black"></path><path fill-rule="evenodd" clip-rule="evenodd" d="M0.558594 7.02412V13.3619L0.676582 13.3915C0.741519 13.4078 3.6166 13.414 7.06571 13.4053L13.3368 13.3893L13.3528 9.19917C13.3615 6.89458 13.3532 4.03974 13.3341 2.8551L13.2995 0.701149L6.92905 0.693791L0.558594 0.686381V7.02412ZM18.9098 0.719749C18.8576 0.773557 18.8626 2.38626 18.9151 2.4693C18.9474 2.52035 19.1477 2.53215 19.7816 2.5204L20.6061 2.50512L20.606 4.30638L20.6059 6.10765H19.7387H18.8715V5.2134V4.31916H17.9278H16.9841V3.39936V2.47957H16.0903H15.1964L15.2103 3.41214L15.2242 4.34471L16.0787 4.35871L16.9331 4.37271V6.15997V7.94723H16.0648H15.1965L15.2104 8.90535L15.2242 9.86347L16.0726 9.84625L16.9209 9.82903L16.9413 10.6756C16.9532 11.1669 16.9841 11.5446 17.0149 11.5755C17.049 11.6096 17.3971 11.6238 17.9826 11.6149L18.897 11.6009L18.9104 9.79832L18.9239 7.99583L20.6193 7.99838C21.5518 7.99976 22.3435 8.00032 22.3785 7.99961C22.4271 7.99864 22.4423 7.77835 22.4423 7.07215V6.14597L22.6017 6.17791C22.6894 6.19549 23.1026 6.20984 23.5199 6.20984H24.2787V7.10409V7.99833L24.9801 8.00666C25.3659 8.01126 25.7673 8.01703 25.8722 8.01943L26.0629 8.02388L26.0844 8.89809L26.106 9.77236L24.2869 9.76679L22.4678 9.76127V11.5625V13.3638L21.6516 13.3646C21.2027 13.365 20.8014 13.3869 20.7599 13.4132C20.6949 13.4543 20.6867 13.7113 20.7013 15.2393C20.7133 16.5056 20.7351 17.0284 20.7768 17.0553C20.8091 17.0762 21.6352 17.0877 22.6127 17.0809L24.3899 17.0685L24.3832 16.187L24.3765 15.3056H25.2376H26.0988L26.1323 16.4936C26.1508 17.1471 26.1659 17.9404 26.166 18.2566L26.1661 18.8315L23.5008 18.8322C22.0349 18.8327 20.8049 18.8524 20.7676 18.8761C20.7149 18.9096 20.7009 19.1187 20.7054 19.807C20.7086 20.2953 20.7277 20.7102 20.7478 20.729C20.782 20.7609 22.1656 20.8758 22.6208 20.8846C22.7622 20.8873 22.9737 20.8183 23.3095 20.6598C23.7583 20.4479 24.5197 20.1469 25.6193 19.7463C25.8656 19.6566 26.0834 19.5578 26.1034 19.5267C26.1232 19.4956 26.1513 19.3437 26.1655 19.1892L26.1916 18.9081L28.0025 18.9053L29.8134 18.9026L29.8268 17.1041L29.8402 15.3056H30.7067H31.5733V13.466V11.6264H32.4393H33.3053L33.3192 12.5334L33.3331 13.4404L34.2641 13.4362L35.195 13.4319V15.1566C35.195 16.1052 35.2103 16.9211 35.2289 16.9697C35.2604 17.0521 35.1998 17.0563 34.337 17.0315C33.6836 17.0128 33.399 17.0218 33.3695 17.0623C33.3465 17.0938 33.337 17.5168 33.3483 18.0022L33.369 18.8848L34.3203 18.8709L35.2716 18.857L35.2535 17.9755C35.239 17.261 35.2486 17.0935 35.3046 17.0908C35.3425 17.089 35.7581 17.0904 36.228 17.0938L37.0824 17.1001L37.0824 16.1901L37.0823 15.28L37.9241 15.2972L38.7658 15.3144V11.6308V7.94723H37.8731H36.9804V8.83611V9.72494L35.1823 9.74625C34.1933 9.7579 33.3727 9.7626 33.3586 9.75657C33.3446 9.75059 33.3398 9.34675 33.348 8.85921L33.3629 7.97278L35.1079 7.98617C36.1774 7.9944 36.8825 7.98034 36.9294 7.94984C36.9908 7.90993 37.011 7.72602 37.0314 7.0208L37.0569 6.14147L37.9169 6.13733L38.7768 6.13319L38.7841 4.31349L38.7913 2.49372L37.9241 2.46623C37.4472 2.45111 37.0397 2.44927 37.0187 2.46215C36.9976 2.47507 36.9804 3.29522 36.9804 4.28472V6.08388L35.1441 6.08296L33.3079 6.0821L33.3077 5.22618L33.3076 4.37026H34.3023H35.2971V2.56169C35.2971 1.16079 35.2827 0.748059 35.2333 0.730787C35.1982 0.718472 33.9576 0.702478 32.4764 0.695171L29.7832 0.681885L29.7983 1.58834L29.8134 2.4948L28.9462 2.46179C28.4692 2.44365 27.6377 2.42873 27.0983 2.42862L26.1175 2.42847L26.1036 1.58666L26.0896 0.74484L25.2241 0.730736L24.3585 0.716633L24.3743 1.57255L24.3901 2.42847H22.5235H20.6569V1.58533V0.742182H20.1033C19.7988 0.742182 19.4143 0.728283 19.2489 0.711267C19.0834 0.694251 18.9309 0.698083 18.9098 0.719749ZM40.7425 5.68607C40.7354 8.43334 40.7298 11.2904 40.7299 12.0352L40.7301 13.3893H47.0553H53.3804V7.07854V0.767732L52.7938 0.736153C52.4712 0.718728 49.6305 0.701507 46.4812 0.697828L40.7552 0.691083L40.7425 5.68607ZM2.48829 2.53067C2.48349 2.54472 2.47773 4.58666 2.47553 7.06827C2.4715 11.5564 2.47207 11.5802 2.57353 11.553C2.62964 11.5379 4.65891 11.5253 7.08305 11.5249L11.4905 11.5242L11.4573 7.04021L11.4242 2.55622L10.5951 2.5437C8.80997 2.51667 2.4965 2.50655 2.48829 2.53067ZM24.3702 3.39819L24.3552 4.31926L25.2403 4.31921L26.1255 4.31916L26.1069 3.41214L26.0884 2.50512L25.2368 2.49112L24.3852 2.47712L24.3702 3.39819ZM42.5406 7.00981V11.5539L47.0551 11.5543L51.5696 11.5546V7.04261V2.53067H47.2918C44.9389 2.53067 42.9074 2.51606 42.7773 2.49817L42.5406 2.46567V7.00981ZM31.6243 3.42491V4.31916L32.4532 4.31921H33.2821V3.42502V2.53082L32.4532 2.53077L31.6243 2.53067V3.42491ZM4.3279 4.40858C4.30917 4.53802 4.34626 9.76628 4.36605 9.79842C4.37947 9.82014 5.57991 9.83792 7.03377 9.83792C9.19266 9.83792 9.68757 9.82525 9.73429 9.76883C9.79908 9.69065 9.78592 4.53618 9.72062 4.4304C9.69292 4.38554 9.00504 4.37026 7.00847 4.37026C5.53716 4.37026 4.33091 4.38753 4.3279 4.40858ZM27.9516 5.24626L27.9517 6.13319L28.857 6.13156L29.7624 6.12987V5.27595V4.42197L28.9376 4.42166C28.484 4.42151 28.0766 4.40741 28.0322 4.39034C27.9605 4.3628 27.9515 4.45846 27.9516 5.24626ZM44.2496 7.05984C44.2289 8.52624 44.2275 9.7512 44.2465 9.78196C44.2708 9.82136 45.0801 9.83792 46.982 9.83792H49.6831L49.6699 7.1186L49.6566 4.39923L46.972 4.39647L44.2873 4.39371L44.2496 7.05984ZM29.7763 7.06576L29.7624 7.97278L28.8239 7.97631L27.8855 7.97978L27.8802 8.8961L27.875 9.81237H27.0333H26.1916V10.67C26.1916 11.3761 26.1781 11.5364 26.1151 11.5775C26.0725 11.6051 25.6762 11.6249 25.2224 11.622L24.4062 11.6166L24.3923 12.503L24.3783 13.3893L25.0554 13.3755C25.4278 13.368 25.8213 13.3565 25.9298 13.35L26.1271 13.3382L26.1339 12.4696L26.1406 11.6009L27.0205 11.5869L27.9005 11.5729V13.3881V15.2034H28.5306C28.8772 15.2034 29.3019 15.2181 29.4743 15.2362L29.7879 15.269V13.4221V11.5753H30.6613H31.5347L31.5157 8.86713L31.4967 6.1589L30.6435 6.15885L29.7902 6.15874L29.7763 7.06576ZM15.1884 12.4823C15.2 12.9812 15.2242 13.4008 15.2424 13.4149C15.2605 13.4289 15.6598 13.4336 16.1297 13.4253L16.9841 13.4101L16.993 12.7482C16.9979 12.3842 17.006 12.0222 17.0109 11.9438C17.0158 11.8654 17.0011 11.7504 16.9781 11.6883C16.9373 11.5777 16.9179 11.5753 16.0519 11.5753H15.1674L15.1884 12.4823ZM18.9275 11.6459C18.8873 11.6945 18.8734 11.9862 18.883 12.5785L18.897 13.4404L19.7642 13.4224C20.2412 13.4124 20.6486 13.3938 20.6697 13.381C20.6907 13.3682 20.7079 12.9567 20.7079 12.4665V11.5753H19.847C19.1765 11.5753 18.9731 11.5909 18.9275 11.6459ZM35.2973 12.5334L35.2975 13.3893L36.1134 13.3917L36.9294 13.3941V12.5358V11.6775H36.1132H35.2971L35.2973 12.5334ZM22.544 13.9838C22.5438 14.3033 22.529 14.7199 22.5111 14.9096L22.4786 15.2545H23.4296H24.3807V14.3602V13.466L23.5773 13.4653C23.1354 13.4649 22.7222 13.4507 22.6591 13.4338C22.545 13.4031 22.5443 13.4065 22.544 13.9838ZM1.45129 15.3037C0.59272 15.3309 0.58415 15.3323 0.587721 15.4461C0.589761 15.5094 0.595475 15.906 0.600474 16.3276L0.609605 17.0941H1.50357H2.39754L2.44727 16.963C2.51364 16.7881 2.51114 15.4787 2.44421 15.3533C2.41514 15.2989 2.37499 15.2594 2.35494 15.2654C2.3349 15.2714 1.92824 15.2886 1.45129 15.3037ZM4.29622 15.3244C4.28117 15.3489 4.27331 15.7455 4.27872 16.2059L4.28857 17.043H3.37277C2.68381 17.043 2.45243 17.0588 2.4387 17.1068C2.42871 17.142 2.42707 17.9818 2.43513 18.9731L2.44977 20.7755L3.37817 20.7616L4.30662 20.7477L4.30724 18.9337L4.3079 17.1196L5.14958 17.0941L5.99126 17.0685L6.00524 16.187C6.01289 15.7022 6.00141 15.3049 5.97973 15.304C5.35837 15.2788 4.31657 15.2914 4.29622 15.3244ZM7.9158 16.1733L7.92968 17.0685L8.80962 17.0825L9.68956 17.0965V17.9384C9.68956 18.4015 9.68956 18.7948 9.6895 18.8124C9.6895 18.8301 8.8717 18.8473 7.87219 18.8508L6.05487 18.857L6.06436 19.7993C6.06956 20.3176 6.08742 20.7637 6.104 20.7906C6.12241 20.8205 6.45776 20.828 6.96583 20.8099L7.79746 20.7804L7.81256 21.6327C7.82087 22.1015 7.81322 22.5041 7.79562 22.5274C7.77797 22.5507 6.56136 22.5622 5.09204 22.5529L2.42049 22.5362L2.43809 23.456C2.44784 23.9619 2.46197 24.3823 2.46962 24.3903C2.47727 24.3983 3.68832 24.4037 5.16085 24.4022L7.83816 24.3997L7.88392 25.3303L7.92968 26.2609L8.8339 26.2501L9.73817 26.2393L9.7521 27.1216L9.76607 28.0038H12.4952H15.2242L15.2377 26.177L15.251 24.3502H14.3639C13.636 24.3502 13.4654 24.364 13.4131 24.4272C13.3656 24.4845 13.355 24.7227 13.3715 25.3597L13.3938 26.2154H11.5928H9.79183L9.79168 25.2956L9.79153 24.3758H11.5897H13.3879L13.4018 23.4358L13.4157 22.4959L12.4963 22.5223L11.577 22.5487V21.6865V20.8243H13.3623H15.1477V21.2508C15.1477 21.4854 15.1626 21.8878 15.1809 22.1451L15.214 22.6128H16.0418C16.6438 22.6128 16.883 22.5954 16.9187 22.549C16.9488 22.5099 16.962 21.7801 16.9529 20.671L16.9378 18.857L14.2482 18.8472L11.5585 18.8375L11.5713 18.0296C11.5783 17.5853 11.5685 17.1816 11.5496 17.1324C11.5186 17.0521 11.4262 17.043 10.6406 17.043H9.76607L9.74919 16.1872C9.7399 15.7165 9.72843 15.328 9.72368 15.3239C9.71894 15.3198 9.30713 15.3079 8.80849 15.2973L7.90193 15.2781L7.9158 16.1733ZM11.526 16.1548C11.526 16.64 11.5436 17.0479 11.5652 17.0612C11.5867 17.0745 11.9942 17.0918 12.4706 17.0996L13.3368 17.1137L13.3508 16.2341C13.3615 15.5568 13.3498 15.3496 13.2998 15.3335C13.264 15.3219 12.8503 15.3035 12.3804 15.2926L11.526 15.2727V16.1548ZM17.0018 15.3331C16.9906 15.3623 16.9878 15.7647 16.9956 16.2273L17.0096 17.0685L17.9394 17.0824L18.8692 17.0964L18.8831 18.0022L18.897 18.9081L19.7883 18.8925C20.2785 18.8839 20.6835 18.8724 20.6883 18.8669C20.693 18.8615 20.7051 18.4546 20.7152 17.9628L20.7334 17.0685L19.8152 17.0547L18.897 17.0409L18.9132 16.1985C18.926 15.5361 18.915 15.3512 18.8622 15.333C18.7117 15.2812 17.0216 15.2813 17.0018 15.3331ZM44.3052 15.2923C44.2886 15.309 44.275 15.7212 44.275 16.2084V17.0941H45.2187C46.1623 17.0941 46.1624 17.0941 46.166 16.9791C46.1732 16.7472 46.1552 15.3324 46.1449 15.3221C46.1175 15.2947 44.3317 15.2658 44.3052 15.2923ZM49.724 15.307C49.715 15.3336 49.7144 15.7466 49.7228 16.2247L49.7378 17.0941H50.6792H51.6206V17.9953V18.8965L51.3839 18.864C51.2537 18.8461 50.4279 18.8315 49.5487 18.8315H47.9502L47.9363 17.95L47.9223 17.0685L47.1571 17.0539C46.7363 17.0458 46.3403 17.052 46.2772 17.0676C46.1638 17.0957 46.1624 17.1063 46.1624 17.9637V18.8315H44.4067C43.4411 18.8315 42.6147 18.8454 42.5703 18.8625C42.4985 18.8901 42.4896 18.7909 42.4896 17.9676V17.0417L40.615 17.0551L38.7404 17.0685L38.7581 17.9638L38.7757 18.8591L37.8758 18.8394L36.976 18.8198L36.9909 19.771L37.0059 20.7222L36.126 20.7222L35.246 20.7221V21.6345V22.5469L35.9787 22.5826C36.3817 22.6023 36.7708 22.6034 36.8435 22.5851L36.9756 22.5519L36.9907 23.4127C36.9991 23.8862 36.9988 24.2908 36.9902 24.3119C36.9815 24.333 36.5975 24.3502 36.137 24.3502H35.2995L35.2855 23.4687L35.2716 22.5873L34.3099 22.5617C33.7811 22.5477 33.323 22.5519 33.2921 22.5712C33.2192 22.6166 33.33 22.9729 33.7184 23.9418C34.2709 25.3199 34.4168 25.9371 34.58 27.5876C34.6039 27.8293 34.6468 28.0058 34.6878 28.0312C34.7252 28.0543 34.8662 28.0602 35.0009 28.0442L35.246 28.0151L35.2519 28.8527C35.2552 29.3133 35.2609 29.7246 35.2647 29.7668C35.2705 29.8316 35.4034 29.8434 36.1249 29.8434H36.9783L36.9921 30.7632L37.0059 31.683H37.8925H38.7791L38.7735 30.7632L38.7679 29.8434L37.8997 29.8294L37.0314 29.8155V28.948C37.0314 28.2898 37.0468 28.0797 37.0952 28.0772C37.1303 28.0753 37.9432 28.0696 38.9017 28.0644C39.8603 28.0592 40.6599 28.0396 40.6788 28.0207C40.6976 28.0019 40.7102 27.5905 40.7067 27.1065L40.7002 26.2264L41.5409 26.252C42.0976 26.2689 42.3998 26.2593 42.4356 26.2235C42.5195 26.1394 42.51 22.6128 42.4258 22.613C42.3908 22.6131 41.9833 22.6074 41.5204 22.6003L40.6787 22.5873V23.4815C40.6787 24.1656 40.6637 24.3745 40.615 24.3707C40.5799 24.3678 40.161 24.3621 39.684 24.3579L38.8168 24.3502V23.456C38.8168 22.7755 38.8016 22.5614 38.7531 22.5602C38.718 22.5594 38.3163 22.5583 37.8604 22.5579L37.0314 22.5571V21.6651V20.7732H40.5951H44.1587L44.1909 21.0415C44.2086 21.189 44.2233 21.603 44.2235 21.9613L44.224 22.6128H45.1932H46.1624V25.3248V28.0367L45.2314 28.0203L44.3005 28.0038V28.9174V29.831L45.2314 29.8215L46.1624 29.812V31.6546V33.4971H45.2187H44.275V32.5709V31.6447L43.3823 31.6668L42.4896 31.6889V29.8592V28.0294H41.5969H40.7042V29.8979V31.7664L41.5715 31.7503L42.4387 31.7341L42.4478 32.4878C42.4527 32.9024 42.4584 33.2933 42.4605 33.3565L42.4641 33.4715H41.5739H40.6837L40.6985 34.3785C40.7102 35.0997 40.6996 35.2855 40.6465 35.2855C40.6097 35.2855 40.1821 35.2956 39.6962 35.3077L38.8127 35.3299L38.8194 34.4263L38.8261 33.5226L38.018 33.4871C37.5736 33.4676 37.1698 33.4634 37.1207 33.4778C37.0381 33.502 37.0314 33.4373 37.0314 32.6098V31.7156L36.2025 31.6992C35.7466 31.6902 35.3506 31.6981 35.3226 31.7168C35.2902 31.7383 35.2808 32.0738 35.2971 32.6366L35.3226 33.5226H36.1488H36.975L36.965 34.3811L36.9549 35.2397L35.1293 35.2498L33.3036 35.26L33.3102 34.3913L33.3169 33.5226H32.4323H31.5478L31.5622 35.3466L31.5767 37.1705L30.6823 37.1606L29.7879 37.1507V36.2181V35.2855H28.8431H27.8982L27.9121 36.2437L27.926 37.2018L28.8314 37.2157L29.7369 37.2297L29.7373 37.8289C29.7375 38.1585 29.7525 38.5509 29.7704 38.701L29.8032 38.9738L28.8391 38.9593L27.875 38.9448L27.8783 39.849L27.8817 40.7532H26.9984H26.1151L26.115 39.8462L26.1149 38.9392H23.4047H20.6945L20.7264 38.4537C20.744 38.1867 20.7585 37.7958 20.7586 37.585L20.7589 37.2018H22.557H24.3552L24.3475 36.2806L24.3397 35.3594L25.2401 35.3608L26.1406 35.3622L26.1571 35.1067C26.1803 34.7476 26.0962 34.4993 25.9243 34.4195C25.5977 34.2679 24.8426 34.0147 24.6151 33.9806C24.4305 33.9528 24.3582 33.9612 24.3241 34.0142C24.2991 34.053 24.2935 34.3429 24.3116 34.6583C24.3384 35.1249 24.3312 35.2365 24.2733 35.2566C24.2342 35.2702 23.8071 35.2879 23.3244 35.2962L22.4466 35.3111L22.4772 34.8453C22.512 34.3159 22.4783 34.1102 22.3569 34.1102C22.311 34.1102 22.0249 34.1907 21.7212 34.2891C21.1486 34.4745 20.654 34.5226 20.3823 34.4191C20.2104 34.3536 19.8517 34.0241 19.7609 33.8484C19.6487 33.631 19.6719 33.1539 19.8194 32.6469C20.2176 31.277 20.4124 30.4059 20.3919 30.0861L20.3764 29.8434H18.6802H16.9841L16.9841 28.9102V27.9771L16.1042 28.0109C15.5606 28.0318 15.209 28.0663 15.1844 28.101C15.1624 28.1318 15.1509 28.5308 15.1588 28.9876L15.1732 29.818L13.3262 29.8179L11.4792 29.8179L11.5106 30.7632L11.542 31.7086H10.6413H9.74057V33.4613C9.74057 34.7564 9.75653 35.23 9.80178 35.2753C9.84703 35.3206 10.3198 35.3366 11.6127 35.3366H13.3623V36.258C13.3623 37.0875 13.3713 37.1831 13.4516 37.2161C13.5007 37.2364 13.9024 37.2529 14.3443 37.2529H15.1477L15.1537 38.8881C15.1571 39.7874 15.1748 40.5922 15.1931 40.6766L15.2265 40.8299L16.0926 40.8132L16.9586 40.7966V42.6097V44.4228L16.0775 44.3943L15.1964 44.3657L15.2103 45.3316L15.2242 46.2975L17.0801 46.311L18.936 46.3243L18.9192 47.103C18.9099 47.5312 18.9069 48.3472 18.9124 48.9164L18.9225 49.9511H19.791H20.6595L20.6454 50.771L20.6314 51.5908L17.9278 51.6013L15.2242 51.6119L15.2097 52.455C15.2016 52.9188 15.2079 53.3499 15.2234 53.4131L15.2517 53.5281H18.8185C21.6164 53.5281 22.394 53.5144 22.4257 53.4642C22.4479 53.4291 22.4701 53.0136 22.475 52.5409L22.4841 51.6814L26.1232 51.6722L29.7624 51.663L29.7879 50.7943L29.8134 49.9256L30.6678 49.9442C31.2724 49.9574 31.5229 49.9462 31.5242 49.9059C31.5254 49.8746 31.5272 49.4638 31.5284 48.993L31.5304 48.1371L30.7739 48.1224C30.3579 48.1144 29.9647 48.1209 29.9004 48.1368C29.7832 48.1658 29.7832 48.1658 29.7983 49.0247L29.8134 49.8835L27.9899 49.879L26.1664 49.8745L26.1662 49.0058L26.166 48.1371L27.9593 48.1529C29.3954 48.1656 29.761 48.1554 29.795 48.1018C29.8183 48.065 29.8377 47.6325 29.8381 47.1407L29.8388 46.2464L30.706 46.2635L31.5733 46.2806V45.3535V44.4264L32.4277 44.4422L33.2821 44.4579L33.2961 43.5254L33.3099 42.5928L32.4544 42.5926L31.5988 42.5925L31.5845 39.9738C31.5766 38.5335 31.5891 37.3269 31.6122 37.2925C31.6439 37.2452 32.0838 37.2289 33.4051 37.226C34.368 37.2239 35.1618 37.2291 35.1691 37.2375C35.1764 37.246 35.1989 37.6412 35.2191 38.1158L35.2557 38.9788L34.2944 38.959L33.3331 38.9392L33.3192 39.8462C33.3083 40.5519 33.3197 40.7542 33.3702 40.7579C33.421 40.7616 35.1337 40.7582 35.2473 40.7541C35.262 40.7536 35.2651 40.3623 35.2542 39.8845L35.2343 39.0158H36.0819C36.7265 39.0158 36.9292 39.0311 36.9283 39.0797C36.9276 39.1148 36.9334 39.9263 36.941 40.8828L36.9549 42.6221L36.1217 42.6202L35.2885 42.6183L35.295 43.5082C35.2985 43.9976 35.3139 44.4183 35.3291 44.4431C35.3444 44.4677 35.7049 44.4846 36.1304 44.4806L36.9039 44.4732L36.9178 45.3639L36.9317 46.2546L36.7902 46.2398C36.7125 46.2317 35.8971 46.2149 34.9782 46.2024L33.3076 46.1798V47.1457V48.1115H34.2513H35.195V49.2533C35.195 49.8812 35.2102 50.6777 35.2288 51.0233L35.2625 51.6515L34.2723 51.6317L33.2821 51.6119L33.2857 51.7269C33.2878 51.7901 33.2935 52.2215 33.2985 52.6856L33.3076 53.5294L35.1823 53.516L37.0569 53.5026L37.0704 51.7269L37.0838 49.9511H37.9241H38.7645L38.7779 51.7269L38.7913 53.5026L39.7284 53.5165C40.3516 53.5258 40.6879 53.5118 40.7327 53.4746C40.7876 53.4289 40.7949 52.7715 40.7726 49.8769C40.7576 47.929 40.7647 46.3268 40.7885 46.3164C40.8123 46.306 41.199 46.309 41.6479 46.3231L42.4641 46.3486L42.4896 48.1371L42.5151 49.9256H43.3441H44.173L44.1734 50.5132C44.1737 50.8364 44.1887 51.2245 44.2068 51.3757L44.2397 51.6505L43.3938 51.6132L42.5479 51.5757L42.5315 51.7471C42.5225 51.8414 42.5219 52.2807 42.5303 52.7233L42.5455 53.5281H45.1894C47.277 53.5281 47.8447 53.5143 47.8875 53.4626C47.9226 53.4203 47.9365 53.0818 47.9269 52.5045L47.912 51.6119L47.0754 51.5979L46.2389 51.5839L46.2458 50.7292L46.2527 49.8745L47.1002 49.8936L47.9478 49.9126V49.0439C47.9478 48.4102 47.9305 48.1614 47.884 48.1242C47.8469 48.0944 47.4878 48.0758 47.0244 48.0796L46.2285 48.086L46.2194 46.2686L46.2103 44.4513L47.079 44.4739L47.9478 44.4966V42.6518V40.8071L48.7767 40.8383C49.2326 40.8555 49.6106 40.8732 49.6166 40.8777C49.6227 40.8822 49.6341 42.0858 49.6421 43.5522L49.6566 46.2186L48.7914 46.2325L47.9262 46.2464L47.9416 47.1662C47.95 47.6721 47.9682 48.0975 47.9821 48.1115C47.9959 48.1256 48.8121 48.1445 49.7959 48.1535C51.0829 48.1653 51.5946 48.1537 51.6201 48.1123C51.6396 48.0806 51.6451 47.2399 51.6321 46.2441L51.6086 44.4335L52.4738 44.4663C53.296 44.4973 53.3402 44.4942 53.3637 44.4018C53.3772 44.3484 53.3865 43.1089 53.3844 41.6474L53.3804 38.9903H50.6514H47.9223L47.9385 39.8717L47.9548 40.7532L47.0714 40.753L46.1879 40.7528L46.1783 38.9901L46.1687 37.2273H47.0327C47.8215 37.2273 47.8968 37.2196 47.897 37.1379C47.8971 37.0887 47.9013 36.6576 47.9061 36.1798L47.9149 35.3111L47.5105 35.2946C47.2881 35.2855 46.8937 35.2934 46.6342 35.3121L46.1624 35.3462V36.2612V37.1762H45.2314L44.3005 37.1763L44.3092 36.251L44.3179 35.3257L45.2274 35.3184L46.1369 35.3111L46.1624 34.4168C46.1816 33.7452 46.2038 33.5239 46.2517 33.5277C46.2868 33.5305 47.0787 33.5362 48.0115 33.5405L49.7077 33.5482L49.6939 35.2728C49.6864 36.2213 49.6912 37.0434 49.7046 37.0996C49.7279 37.1973 49.7711 37.2018 50.6875 37.2018H51.6461L51.6285 36.2445L51.611 35.2872L52.4957 35.2991L53.3804 35.3111V32.5553V29.7995L52.526 29.8127L51.6716 29.8257V28.9257V28.0256L52.526 28.0403L53.3804 28.0549L53.3937 25.3094L53.4068 22.5639L53.2916 22.5357C53.2282 22.5201 52.8468 22.5139 52.4439 22.5218L51.7114 22.5362L51.7043 21.6484L51.6971 20.7606L52.5388 20.7797L53.3804 20.7988L53.3938 18.9209L53.4072 17.043H52.5406H51.674L51.6601 16.1711L51.6461 15.2992L50.6932 15.2789C50.1202 15.2667 49.7338 15.2779 49.724 15.307ZM46.2019 20.7243L46.2159 22.566L47.0691 22.559L47.9223 22.552L47.9601 23.4639C47.9809 23.9654 47.9924 26.0199 47.9856 28.0294L47.9733 31.683L48.8435 31.6923L49.7138 31.7015L49.7107 28.9329L49.7077 26.1643L50.6514 26.1824L51.5951 26.2005V25.2982V24.3959L50.6875 24.405C50.1884 24.4101 49.7664 24.4005 49.7497 24.3838C49.6999 24.334 49.6955 24.1924 49.6887 22.4468L49.6822 20.7732H48.815H47.9478V19.8279V18.8826H47.0678L46.1879 18.8825L46.2019 20.7243ZM26.1293 20.6442C25.2867 20.7751 24.1073 21.2499 23.3743 21.7533C22.9188 22.066 22.1493 22.8137 21.816 23.2672C21.4539 23.76 20.9784 24.764 20.8371 25.3341C20.4604 26.8552 20.5506 28.1729 21.1272 29.571C21.4008 30.2344 21.4086 30.5079 21.172 31.1401C20.7762 32.1977 20.5102 33.4028 20.6298 33.5966C20.6999 33.7103 21.0811 33.6251 22.2383 33.237C23.2834 32.8864 23.3578 32.869 23.8196 32.866C24.2497 32.8632 24.3644 32.8838 24.8398 33.0491C25.8232 33.391 26.1293 33.4536 26.9568 33.4821C27.5237 33.5016 27.841 33.4876 28.1818 33.4282C29.7469 33.155 31.2147 32.2269 32.246 30.8586C32.514 30.5031 33.0547 29.4295 33.2232 28.9186C33.6323 27.6782 33.5968 26.0755 33.133 24.8411C32.5726 23.3496 31.4966 22.1254 30.0429 21.3252C29.7841 21.1828 29.1004 20.912 28.6384 20.769C27.9808 20.5655 26.9616 20.5148 26.1293 20.6442ZM18.8927 20.769C18.8811 20.7807 18.8715 21.1614 18.8715 21.6152C18.8715 22.1963 18.8905 22.4659 18.9356 22.5278C18.9924 22.6056 19.0947 22.6139 19.841 22.6014L20.6824 22.5873L20.7079 21.7262C20.722 21.2526 20.7218 20.8464 20.7077 20.8237C20.6818 20.782 18.9321 20.7293 18.8927 20.769ZM26.2426 21.924C24.2151 22.2975 22.7416 23.5593 22.0805 25.4883C21.8647 26.1178 21.7972 26.8023 21.8753 27.5686C21.9591 28.3911 22.0826 28.7971 22.5021 29.6292C22.7785 30.1773 22.775 30.349 22.47 31.224C22.3429 31.5889 22.2388 31.9162 22.2386 31.9513C22.2381 32.0489 22.3529 32.0294 22.7802 31.8593C23.3199 31.6445 23.9008 31.5386 24.1852 31.6029C24.4895 31.6719 25.1232 31.8801 25.4056 32.004C26.0864 32.3028 27.3869 32.3924 28.232 32.1988C29.8777 31.8218 31.3686 30.527 31.9811 28.9428C32.4676 27.6844 32.363 25.9612 31.7227 24.6851C31.0472 23.3389 29.6495 22.2837 28.13 21.9726C27.5503 21.8539 26.7366 21.833 26.2426 21.924ZM24.7633 24.1745C24.3168 24.4056 23.8196 25.1303 23.8196 25.5499C23.8196 26.0943 24.1509 26.7423 24.9721 27.8042C26.0007 29.1342 27.8377 30.1737 28.9342 30.0462C29.5956 29.9693 30.298 29.3631 30.298 28.8693C30.298 28.6449 30.1127 28.4552 29.5958 28.1504C28.7743 27.6662 28.6392 27.6739 28.1476 28.2333C27.8221 28.6037 27.7336 28.6163 27.3343 28.3486C26.7397 27.9499 25.677 26.9301 25.6203 26.7039C25.5974 26.6125 25.6369 26.4887 25.7592 26.268C26.0777 25.6937 25.9755 25.0516 25.4684 24.4405C25.1789 24.0916 25.0312 24.0359 24.7633 24.1745ZM16.9799 24.3714C16.9682 24.383 16.9654 24.8222 16.9736 25.3472L16.9886 26.3019L17.899 26.2841L18.8094 26.2665L18.84 26.522C18.8568 26.6625 18.8709 27.0448 18.8711 27.3716C18.8716 28.0819 18.8888 28.1093 19.3024 28.0575C19.4989 28.0329 19.5886 27.9973 19.6069 27.9366C19.6211 27.8893 19.6692 27.5056 19.7139 27.084C19.7903 26.3624 19.8926 25.6958 20.0627 24.8101C20.1032 24.5993 20.1259 24.4096 20.1131 24.3885C20.0894 24.3495 17.0187 24.3327 16.9799 24.3714ZM37.0663 24.4345C37.0471 24.4537 37.0314 24.8571 37.0314 25.3309V26.1924L36.8912 26.247C36.8064 26.2801 36.4635 26.2948 36.0246 26.2841C35.6251 26.2744 35.298 26.2837 35.2977 26.3048C35.2973 26.3259 35.2971 26.7225 35.2971 27.1862V28.0294H36.1644H37.0317L36.9983 27.1409L36.9648 26.2525L37.1352 26.2149C37.229 26.1944 37.6285 26.186 38.023 26.1964C38.4175 26.2068 38.746 26.1981 38.7531 26.177C38.7601 26.1559 38.7658 25.7529 38.7658 25.2813V24.4239L37.9335 24.4118C37.4757 24.4051 37.0855 24.4154 37.0663 24.4345ZM4.25021 26.2655C4.232 26.313 4.23337 26.7288 4.25322 27.1894L4.28933 28.027L3.35491 28.041L2.42049 28.0549L2.40652 28.9352L2.39259 29.8155L1.49878 29.8295L0.604963 29.8434L0.594557 30.7888L0.584099 31.7341L1.47679 31.7482L2.36948 31.7622L2.38576 32.6296C2.40091 33.4389 2.39575 33.4974 2.30924 33.5012C2.25818 33.5035 1.84978 33.5093 1.4016 33.514L0.586803 33.5226L0.585426 34.4034C0.584405 35.0906 0.599045 35.2899 0.652046 35.3104C0.78044 35.36 2.24808 35.3369 2.34734 35.2838C2.43876 35.2347 2.446 35.169 2.446 34.3895V33.5482H3.33869H4.23138V34.4157V35.2832L3.32594 35.2971L2.42049 35.3111L2.41106 36.2542L2.40162 37.1974L1.50561 37.1827L0.609605 37.1681V38.0676V38.9671L1.51505 38.9531L2.42049 38.9392L2.43442 38.096L2.44835 37.2529L5.15264 37.2627L7.85694 37.2726L7.88311 38.1041C7.89749 38.5615 7.92157 38.948 7.93656 38.963C7.95156 38.978 8.36332 38.9903 8.85155 38.9903C9.54372 38.9903 9.74506 38.9753 9.76541 38.9222C9.77979 38.8848 9.79158 38.0512 9.79158 37.0698V35.2855H7.94197H6.09236L6.10675 34.3785L6.12114 33.4715H6.98955H7.8579L7.85683 30.7377L7.85581 28.0038H6.96174H6.06768L6.06773 27.1224L6.06778 26.2409H5.25579C4.80918 26.2409 4.40768 26.227 4.3635 26.21C4.31453 26.1912 4.27036 26.2129 4.25021 26.2655ZM0.599147 27.1082C0.590884 27.5727 0.59119 27.97 0.599862 27.9911C0.608533 28.0122 1.028 28.0294 1.53204 28.0294H2.4484L2.43447 27.1602L2.42049 26.291L1.51734 26.2773L0.614145 26.2636L0.599147 27.1082ZM11.526 32.6156V33.4971H12.4697H13.4134V34.3913V35.2855H15.1987H16.9841V36.234V37.1824L18.8078 37.1598C19.8108 37.1474 20.6372 37.123 20.6442 37.1056C20.6511 37.0882 20.6569 36.6888 20.6569 36.2181V35.3622L19.7785 35.3454C19.2953 35.3362 18.8821 35.3176 18.8603 35.3041C18.8384 35.2906 18.8205 35.0222 18.8204 34.7077C18.8203 34.3931 18.8052 33.6012 18.7867 32.9477L18.7532 31.7597H16.976H15.1987V32.6617V33.5637L14.3241 33.5341C13.6806 33.5123 13.4381 33.4866 13.4067 33.4369C13.3832 33.3997 13.3635 33.0014 13.363 32.5517L13.3621 31.7341H12.444H11.526V32.6156ZM50.635 31.7468L49.7259 31.7621L49.7423 32.6168L49.7587 33.4715L50.6641 33.4855L51.5696 33.4994V32.604C51.5696 32.1115 51.5638 31.7137 51.5568 31.7201C51.5498 31.7264 51.135 31.7385 50.635 31.7468ZM40.7042 36.2398V37.1251H41.5669C42.361 37.1251 42.4282 37.118 42.4125 37.0357C42.4031 36.9865 42.3936 36.5899 42.3913 36.1542L42.3871 35.3622L41.5456 35.3583L40.7042 35.3544V36.2398ZM11.5436 37.2037C11.5324 37.2329 11.5297 37.6354 11.5374 38.098L11.5515 38.9392L12.4186 38.9647C12.8956 38.9788 13.3145 38.9702 13.3496 38.9457C13.3962 38.9131 13.4134 38.6761 13.4134 38.0652C13.4134 37.2398 13.4119 37.229 13.2986 37.2041C13.0564 37.151 11.5639 37.1507 11.5436 37.2037ZM16.9841 39.8889V40.751L17.9406 40.7649L18.897 40.7788L18.911 41.6858L18.9249 42.5928H22.4945H26.0641V41.6985V40.8043H22.5206C19.0695 40.8043 18.9757 40.8017 18.9243 40.7055C18.8946 40.6497 18.8714 40.2651 18.8712 39.824L18.871 39.0414L17.9275 39.0341L16.9841 39.0269V39.8889ZM38.8678 41.6858V44.3557H41.5212H44.1745L44.172 41.6858L44.1695 39.0158H41.5187H38.8678V41.6858ZM0.558594 47.1102V53.4672L1.08253 53.503C1.97976 53.5642 13.2977 53.5112 13.3634 53.4453C13.4052 53.4034 13.4106 51.7079 13.3835 47.0707L13.3465 40.7532H6.95251H0.558594V47.1102ZM40.7277 41.6845L40.7514 42.6183H41.6077H42.4641V41.6985V40.7788L41.5841 40.7648L40.7041 40.7508L40.7277 41.6845ZM2.49701 47.1443V51.568L6.98598 51.5644L11.4749 51.5608L11.4749 49.7723C11.4748 48.7886 11.4597 46.7996 11.4412 45.3522L11.4076 42.7205H6.95226H2.49701V47.1443ZM27.8902 43.5192C27.8806 44.0374 27.8939 44.3493 27.926 44.3594C27.954 44.3681 28.3856 44.3829 28.885 44.3921C29.7742 44.4085 29.7925 44.4067 29.7684 44.3056C29.7549 44.2489 29.7371 43.8632 29.7288 43.4487L29.7138 42.695H28.8095H27.9053L27.8902 43.5192ZM4.29025 47.1019C4.30061 48.5706 4.32739 49.8011 4.34978 49.8362C4.38146 49.8859 4.96773 49.8999 7.00174 49.8993C8.43795 49.8988 9.64196 49.8801 9.67726 49.8576C9.72781 49.8255 9.73868 49.247 9.72827 47.1373L9.71506 44.4579L6.99322 44.4447L4.27143 44.4315L4.29025 47.1019ZM18.948 45.3638V46.2464L19.8037 46.263L20.6594 46.2795L20.6454 45.3943L20.6314 44.509L19.7897 44.4951L18.948 44.4811V45.3638ZM22.4423 45.3752V46.272H21.5746H20.7068L20.7201 48.0732L20.7334 49.8745L21.5751 49.8715L22.4168 49.8686V48.9773V48.086H23.335H24.2532L24.2787 47.1435L24.3042 46.2011L25.0891 46.2152C25.5208 46.2231 25.9058 46.2417 25.9448 46.2566C26.0037 46.2793 26.0132 46.1381 26.0015 45.4088L25.9876 44.5338L24.2149 44.5061L22.4423 44.4784V45.3752ZM15.2103 48.9662L15.2242 49.8745H16.0914H16.9586V48.9802V48.086L16.0775 48.072L15.1964 48.058L15.2103 48.9662ZM52.4367 48.1091L51.6461 48.1371L51.6321 49.0253L51.6181 49.9135L50.675 49.8765L49.7319 49.8394L49.7453 51.6709L49.7587 53.5026L51.5153 53.516C52.4815 53.5234 53.2908 53.5106 53.3139 53.4875C53.3369 53.4644 53.3594 53.033 53.3638 52.5287L53.3717 51.6119H52.5302H51.6887L51.6929 50.7519L51.6971 49.8919L52.4893 49.9275C53.1614 49.9578 53.2911 49.9515 53.3449 49.8865C53.3914 49.8305 53.4047 49.5784 53.3945 48.9486C53.3827 48.225 53.3682 48.0868 53.3039 48.0842C53.2618 48.0825 52.8716 48.0937 52.4367 48.1091ZM30.2215 51.6331L29.8134 51.663L29.7995 52.5968L29.7856 53.5305L30.6666 53.5166L31.5478 53.5026V52.5572V51.6119L31.0887 51.6076C30.8362 51.6052 30.4459 51.6167 30.2215 51.6331Z" fill="url(#paint0_linear_689_388)"></path><defs><linearGradient id="paint0_linear_689_388" x1="26.9829" y1="0.681885" x2="26.9829" y2="53.5305" gradientUnits="userSpaceOnUse"><stop stop-color="#35DF55"></stop><stop offset="1" stop-color="#04B22A"></stop></linearGradient></defs></svg>