<svg xmlns="http://www.w3.org/2000/svg" width="16" height="20" viewBox="0 0 16 20" fill="none"><path d="M2.37896 1.02973L15.0954 8.80806C15.0955 8.80809 15.0955 8.80813 15.0956 8.80816C15.3002 8.93255 15.4693 9.10752 15.5867 9.31623C15.7041 9.525 15.7658 9.76049 15.7658 10C15.7658 10.2395 15.7041 10.475 15.5867 10.6838C15.4694 10.8924 15.3003 11.0673 15.0958 11.1917C15.0957 11.1918 15.0956 11.1919 15.0954 11.192L2.37896 18.9703C2.16479 19.1016 1.91943 19.1734 1.66824 19.1782C1.41732 19.183 1.16968 19.1207 0.950853 18.9979C0.73275 18.8779 0.55105 18.7014 0.424917 18.4868C0.298722 18.272 0.232834 18.0273 0.234201 17.7782M2.37896 1.02973L1.03587 1.15507C0.845058 1.25986 0.686096 1.41426 0.575788 1.60194C0.465479 1.78962 0.407922 2.00361 0.409201 2.2213H0.234201V2.2218V17.7782M2.37896 1.02973C2.37893 1.02971 2.37891 1.0297 2.37888 1.02968C2.16473 0.898354 1.9194 0.82659 1.66824 0.821807C1.41733 0.81703 1.1697 0.879269 0.950878 1.0021L2.37896 1.02973ZM0.234201 17.7782C0.234201 17.778 0.234202 17.7779 0.234204 17.7777L0.409201 17.7787M0.234201 17.7782V17.7787H0.409201M0.409201 17.7787C0.407922 17.9964 0.465479 18.2104 0.575788 18.3981C0.686096 18.5858 0.845058 18.7402 1.03587 18.8449M0.409201 17.7787L1.03587 18.8449M1.03587 18.8449C1.22772 18.9528 1.44487 19.0074 1.66491 19.0032C1.88494 18.9991 2.09986 18.9362 2.28746 18.8211L1.03587 18.8449Z" fill="#030303" stroke="#030303" stroke-width="0.35"></path></svg>